<svg fill="none" height="162" viewBox="0 0 161 162" width="161" xmlns="http://www.w3.org/2000/svg" xmlns:xlink="http://www.w3.org/1999/xlink"><mask id="a" height="160" maskUnits="userSpaceOnUse" width="161" x="0" y="1"><path clip-rule="evenodd" d="m80.5 161c44.183 0 80-35.817 80-80 0-44.1828-35.817-80-80-80-44.1828 0-80 35.8172-80 80 0 44.183 35.8172 80 80 80z" fill="#fff" fill-rule="evenodd"/></mask><path d="m80.5 161.25c44.321 0 80.25-35.929 80.25-80.25 0-44.3209-35.929-80.25-80.25-80.25-44.3209 0-80.25 35.9291-80.25 80.25 0 44.321 35.9291 80.25 80.25 80.25z" fill="#f7f8fa" stroke="#e9e9e9" stroke-width=".5"/><g mask="url(#a)"><path clip-rule="evenodd" d="m138.707 142.438c-4.717-6.823-11.67-11.782-19.657-14.019l-18.55-5.197v-13.332c7.842-5.891 12.992-15.1609 13.308-25.6467 1.096.4831 2.306.7569 3.582.7569 4.909 0 8.889-3.9795 8.889-8.8889 0-4.9093-3.98-8.8889-8.889-8.8889-1.266 0-2.467.268-3.556.7445v-2.5222c0-18.4098-14.9239-33.3334-33.3332-33.3334h-.0005c-18.4093 0-33.3329 14.9236-33.3329 33.3334v2.5222c-1.0897-.4765-2.2906-.7445-3.5555-.7445-4.9094 0-8.8889 3.9796-8.8889 8.8889 0 4.9094 3.9795 8.8889 8.8889 8.8889 1.2751 0 2.4849-.2733 3.5813-.7569.316 10.4858 5.4658 19.7557 13.3071 25.6467v13.332l-18.5493 5.197c-7.9867 2.237-14.94 7.196-19.6565 14.019l-12.90485 18.669v13.227h142.22235v-13.227z" fill="#ffcf83" fill-rule="evenodd"/><path clip-rule="evenodd" d="m80.5003 116.556c-4.1102 0-8.0444-.749-11.68-2.109 5.1707 3.303 11.3111 5.22 17.9022 5.22 4.9156 0 9.5774-1.073 13.7775-2.982v-6.796c-5.5708 4.185-12.4952 6.667-19.9997 6.667z" fill="#f7a74f" fill-rule="evenodd"/><path d="m48.3268 77.4084c.1133-.4129.1742-.848.1742-1.2969 0-2.7-2.1889-4.8888-4.8889-4.8888-.6751 0-1.3182.1368-1.9031.384" stroke="#00004d" stroke-linecap="round" stroke-linejoin="round" stroke-width="2"/><path d="m112.675 77.4084c-.114-.4129-.174-.848-.174-1.2969 0-2.7 2.189-4.8888 4.889-4.8888.675 0 1.318.1368 1.903.384" stroke="#00004d" stroke-linecap="round" stroke-linejoin="round" stroke-width="2"/><g clip-rule="evenodd" fill-rule="evenodd"><path d="m91.6119 94.5552c0 6.1368-4.9747 11.1108-11.1111 11.1108-6.1365 0-11.1112-4.974-11.1112-11.1108z" fill="#ae1328"/><path d="m86.7187 103.764c-1.6031-1.57-3.7965-2.542-6.2183-2.542-2.4217 0-4.6151.972-6.2182 2.542 1.7747 1.201 3.9142 1.902 6.2182 1.902 2.3036 0 4.444-.701 6.2183-1.902z" fill="#fb344f"/><path d="m87.1679 98.1107h-13.3334c-1.2275 0-2.2222-.9946-2.2222-2.2222v-1.3333h17.7778v1.3333c0 1.2276-.9947 2.2222-2.2222 2.2222z" fill="#fff"/></g><path d="m80.4995 73.8887 4.4444 15.1111-6.2222.8889" stroke="#00004d" stroke-linecap="round" stroke-linejoin="round" stroke-width="2"/><path clip-rule="evenodd" d="m112.612 63.9755v4.648c1.38-.8826 3.017-1.4013 4.777-1.4013.301 0 .597.016.889.0449v-3.1978c0-7.2467-2.044-14.0142-5.582-19.7649-3.278-5.3289-7.844-9.7756-13.2618-12.9204-5.5684-3.2325-12.032-5.0925-18.9338-5.0925-6.9017 0-13.3653 1.86-18.9337 5.0925-5.4174 3.1448-9.9836 7.5915-13.2623 12.9204-3.5373 5.7507-5.5817 12.5178-5.5817 19.7649v3.1978c.2924-.0289.5884-.0449.8888-.0449 1.7605 0 3.3969.5182 4.7778 1.4013v-4.6204c5.7156-1.4134 11.5774-2.4565 17.5574-3.1058l6.0511-11.0076v10.4894c2.8115-.1765 5.6462-.268 8.5026-.268 11.0307 0 21.7486 1.3391 31.9996 3.8644z" fill="#00004d" fill-rule="evenodd"/><path clip-rule="evenodd" d="m151.611 161.107-12.905-18.669c-4.716-6.822-11.67-11.782-19.657-14.019l-.983-.276-3.975-7.715c-.978-1.9-2.609-3.384-4.592-4.18l-8.999-3.61v10.691c-.002.003-.002.004-.003.007l-19.8834 19.884c-.0383 0-.0756.002-.1138.002l-20-20v-10.695l-8.9991 3.611c-1.9836.795-3.6138 2.279-4.5925 4.178l-4.0418 7.846-.9164.257c-7.9867 2.237-14.94 7.197-19.6564 14.019l-12.90493 18.669v13.226h142.22233z" fill="#9292b3" fill-rule="evenodd"/><path d="m42.8662 128.162 37.6333 21.782 27.2405-15.687" stroke="#00004d" stroke-linecap="round" stroke-linejoin="round" stroke-width="2"/><path clip-rule="evenodd" d="m70.2777 167.721c-.7365 0-1.3334-.597-1.3334-1.333v-23.099l2.6667 1.51v21.589c0 .736-.5969 1.333-1.3333 1.333z" fill="#00004d" fill-rule="evenodd"/><path clip-rule="evenodd" d="m90.722 158.388c-.7364 0-1.3333-.597-1.3333-1.333v-12.23l2.6666-1.536v13.766c0 .736-.5968 1.333-1.3333 1.333z" fill="#00004d" fill-rule="evenodd"/><g stroke="#00004d" stroke-linecap="round" stroke-linejoin="round"><path d="m56.9443 119.667 3.5556 3.555" stroke-width="2"/><g stroke-width="4"><path clip-rule="evenodd" d="m106.278 78.7779c0 5.6453-4.576 10.2222-10.2218 10.2222-5.6453 0-10.2222-4.5769-10.2222-10.2222 0-5.6458 4.5769-10.2222 10.2222-10.2222 5.6458 0 10.2218 4.5764 10.2218 10.2222z" fill-rule="evenodd"/><path clip-rule="evenodd" d="m54.7227 78.7779c0 5.6453 4.5764 10.2222 10.2222 10.2222s10.2222-4.5769 10.2222-10.2222c0-5.6458-4.5764-10.2222-10.2222-10.2222s-10.2222 4.5764-10.2222 10.2222z" fill-rule="evenodd"/><path d="m74.5332 75.2303c.7622-2.5742 3.1453-4.4525 5.9667-4.4525 2.8217 0 5.2044 1.8783 5.9671 4.4525"/></g></g><path clip-rule="evenodd" d="m98.7224 77.8888c0 1.9636-1.592 3.5556-3.5555 3.5556-1.9636 0-3.5556-1.592-3.5556-3.5556 0-1.9635 1.592-3.5555 3.5556-3.5555 1.9635 0 3.5555 1.592 3.5555 3.5555z" fill="#00004d" fill-rule="evenodd"/><path clip-rule="evenodd" d="m69.3885 77.8888c0 1.9636-1.592 3.5556-3.5556 3.5556s-3.5556-1.592-3.5556-3.5556c0-1.9635 1.592-3.5555 3.5556-3.5555s3.5556 1.592 3.5556 3.5555z" fill="#00004d" fill-rule="evenodd"/></g></svg>