<svg fill="none" height="162" viewBox="0 0 161 162" width="161" xmlns="http://www.w3.org/2000/svg" xmlns:xlink="http://www.w3.org/1999/xlink"><mask id="a" height="160" maskUnits="userSpaceOnUse" width="161" x="0" y="1"><path clip-rule="evenodd" d="m80.5 161c44.183 0 80-35.817 80-80 0-44.1828-35.817-80-80-80-44.1828 0-80 35.8172-80 80 0 44.183 35.8172 80 80 80z" fill="#fff" fill-rule="evenodd"/></mask><path d="m80.5 161.25c44.321 0 80.25-35.929 80.25-80.25 0-44.3209-35.929-80.25-80.25-80.25-44.3209 0-80.25 35.9291-80.25 80.25 0 44.321 35.9291 80.25 80.25 80.25z" fill="#f7f8fa" stroke="#e9e9e9" stroke-width=".5"/><g mask="url(#a)"><path clip-rule="evenodd" d="m138.707 142.438c-4.717-6.823-11.67-11.782-19.657-14.019l-18.55-5.197v-13.332c7.842-5.891 12.992-15.1609 13.308-25.6467 1.096.4831 2.306.7569 3.582.7569 4.909 0 8.889-3.9795 8.889-8.8889 0-4.9093-3.98-8.8889-8.889-8.8889-1.266 0-2.467.268-3.556.7445v-2.5222c0-18.4098-14.9239-33.3334-33.3332-33.3334h-.0005c-18.4093 0-33.3329 14.9236-33.3329 33.3334v2.5222c-1.0897-.4765-2.2906-.7445-3.5555-.7445-4.9094 0-8.8889 3.9796-8.8889 8.8889 0 4.9094 3.9795 8.8889 8.8889 8.8889 1.2751 0 2.4849-.2733 3.5813-.7569.316 10.4858 5.4658 19.7557 13.3071 25.6467v13.332l-18.5493 5.197c-7.9867 2.237-14.94 7.196-19.6565 14.019l-12.90485 18.669v13.227h142.22235v-13.227z" fill="#e9ada1" fill-rule="evenodd"/><path clip-rule="evenodd" d="m80.5003 116.556c-4.1102 0-8.0444-.749-11.68-2.109 5.1707 3.303 11.3111 5.22 17.9022 5.22 4.9156 0 9.5774-1.073 13.7775-2.982v-6.796c-5.5708 4.185-12.4952 6.667-19.9997 6.667z" fill="#db8b79" fill-rule="evenodd"/><path d="m48.3268 77.4084c.1133-.4129.1742-.848.1742-1.2969 0-2.7-2.1889-4.8888-4.8889-4.8888-.6751 0-1.3182.1368-1.9031.384" stroke="#00004d" stroke-linecap="round" stroke-linejoin="round" stroke-width="2"/><path d="m112.675 77.4084c-.114-.4129-.174-.848-.174-1.2969 0-2.7 2.189-4.8888 4.889-4.8888.675 0 1.318.1368 1.903.384" stroke="#00004d" stroke-linecap="round" stroke-linejoin="round" stroke-width="2"/><g clip-rule="evenodd" fill-rule="evenodd"><path d="m69.3896 105.666c0-6.1362 4.9747-11.1108 11.1112-11.1108 6.1364 0 11.1111 4.9746 11.1111 11.1108z" fill="#ae1328"/><path d="m80.5004 94.5552c-3.2177 0-6.1146 1.3698-8.144 3.5555h16.288c-2.0293-2.1857-4.9262-3.5555-8.144-3.5555z" fill="#fff"/><path d="m80.5008 101.222c-3.288 0-6.1525 1.79-7.6903 4.444h15.3805c-1.5378-2.654-4.4022-4.444-7.6902-4.444z" fill="#fb344f"/></g><path d="m80.4995 73.8887 4.4444 15.1111-6.2222.8889" stroke="#00004d" stroke-linecap="round" stroke-linejoin="round" stroke-width="2"/><path clip-rule="evenodd" d="m49.976 69.9127c-.7969-.8177-1.748-1.4822-2.8089-1.9457-1.0893-.4765-2.2902-.7449-3.5556-.7449-.3 0-.5964.016-.8888.0453v-1.8231c0-20.864 16.9137-37.7778 37.7777-37.7778 20.8636 0 37.7776 16.9138 37.7776 37.7778v1.8231c-.292-.0293-.589-.0453-.889-.0453-1.265 0-2.466.2684-3.555.7449-1.151.5031-2.169 1.2457-3.004 2.1604-15.794-1.2249-30.0447-7.948-40.8362-18.2649-4.6254 7.9027-11.6271 14.2365-20.0178 18.0502zm63.832 14.3303c-.316 10.4862-5.466 19.756-13.307 25.646v13.333l17.777 4.981v-43.2476c-.293.0289-.589.0445-.889.0445-1.275 0-2.485-.2734-3.581-.7569zm-53.3076 25.646c-7.8417-5.89-12.9911-15.1598-13.3075-25.646-1.0965.4836-2.3062.7569-3.5814.7569-.3 0-.5964-.0155-.8888-.0449v43.248l17.7777-4.981z" fill="#00004d" fill-rule="evenodd"/><path clip-rule="evenodd" d="m138.706 142.438c-4.716-6.823-11.67-11.782-19.657-14.019l-11.857-3.322-4.914-8.097h-1.778v3.329l-20.0002 18.449h-.0005l-19.9995-18.449v-3.329h-1.7778l-4.9138 8.097-11.8578 3.322c-7.9871 2.237-14.94 7.196-19.6568 14.019l-12.90493 18.668v13.228h142.22233v-13.227z" fill="#9bc5ff" fill-rule="evenodd"/><path d="m53.8076 125.097 11.692 24.236 15-10.555" stroke="#00004d" stroke-linecap="round" stroke-linejoin="round" stroke-width="2"/><path d="m80.5 138.778 15 10.555 7.799-16.166" stroke="#00004d" stroke-linecap="round" stroke-linejoin="round" stroke-width="2"/><g clip-rule="evenodd" fill="#00004d" fill-rule="evenodd"><path d="m67.0851 80.9186c2.3062-.8395 3.4956-3.3902 2.6565-5.6964l-8.3529 3.04c.8391 2.3066 3.3902 3.496 5.6964 2.6564z"/><path d="m93.6473 80.9186c-2.3062-.8395-3.496-3.3902-2.6564-5.6964l8.3529 3.04c-.8396 2.3066-3.3903 3.496-5.6965 2.6564z"/></g></g></svg>