<svg fill="none" height="162" viewBox="0 0 161 162" width="161" xmlns="http://www.w3.org/2000/svg" xmlns:xlink="http://www.w3.org/1999/xlink"><mask id="a" height="160" maskUnits="userSpaceOnUse" width="161" x="0" y="1"><path clip-rule="evenodd" d="m80.5 161c44.183 0 80-35.817 80-80 0-44.1828-35.817-80-80-80-44.1828 0-80 35.8172-80 80 0 44.183 35.8172 80 80 80z" fill="#fff" fill-rule="evenodd"/></mask><path d="m80.5 161.25c44.321 0 80.25-35.929 80.25-80.25 0-44.3209-35.929-80.25-80.25-80.25-44.3209 0-80.25 35.9291-80.25 80.25 0 44.321 35.9291 80.25 80.25 80.25z" fill="#f7f8fa" stroke="#e9e9e9" stroke-width=".5"/><g mask="url(#a)"><path clip-rule="evenodd" d="m138.707 142.438c-4.717-6.823-11.67-11.782-19.657-14.019l-18.55-5.197v-13.332c7.842-5.891 12.992-15.1609 13.308-25.6467 1.096.4831 2.306.7569 3.582.7569 4.909 0 8.889-3.9795 8.889-8.8889 0-4.9093-3.98-8.8889-8.889-8.8889-1.266 0-2.467.268-3.556.7445v-2.5222c0-18.4098-14.9239-33.3334-33.3332-33.3334h-.0005c-18.4093 0-33.3329 14.9236-33.3329 33.3334v2.5222c-1.0897-.4765-2.2906-.7445-3.5555-.7445-4.9094 0-8.8889 3.9796-8.8889 8.8889 0 4.9094 3.9795 8.8889 8.8889 8.8889 1.2751 0 2.4849-.2733 3.5813-.7569.316 10.4858 5.4658 19.7557 13.3071 25.6467v13.332l-18.5493 5.197c-7.9867 2.237-14.94 7.196-19.6565 14.019l-12.90485 18.669v13.227h142.22235v-13.227z" fill="#ffcf83" fill-rule="evenodd"/><path clip-rule="evenodd" d="m80.5003 116.556c-4.1102 0-8.0444-.749-11.68-2.109 5.1707 3.303 11.3111 5.22 17.9022 5.22 4.9156 0 9.5774-1.073 13.7775-2.982v-6.796c-5.5708 4.185-12.4952 6.667-19.9997 6.667z" fill="#f7a74f" fill-rule="evenodd"/><g stroke="#00004d" stroke-linecap="round" stroke-linejoin="round" stroke-width="2"><path d="m48.3268 77.4084c.1133-.4129.1742-.848.1742-1.2969 0-2.7-2.1889-4.8888-4.8889-4.8888-.6751 0-1.3182.1368-1.9031.384"/><path d="m112.675 77.4084c-.114-.4129-.174-.848-.174-1.2969 0-2.7 2.189-4.8888 4.889-4.8888.675 0 1.318.1368 1.903.384"/><path d="m74.918 99.4412c1.1814-1.868 3.2654-3.108 5.6387-3.108 2.2991 0 4.3267 1.164 5.5253 2.9351"/><path d="m80.4995 73.8887 4.4444 15.1111-6.2222.8889"/></g><path clip-rule="evenodd" d="m116.055 67.3329v-1.8884-31.1111c0-2.4543-1.99-4.4445-4.444-4.4445h-40c-14.7276 0-26.6667 11.9391-26.6667 26.6667v8.8889 1.8884c2.5334.3822 4.7169 1.8245 6.0756 3.8707l3.0102-10.0951c1.1236-3.7667 4.588-6.3489 8.5182-6.3489h35.9032c3.9305 0 7.3945 2.5822 8.5185 6.3489l3.01 10.0951c1.359-2.0462 3.542-3.4885 6.075-3.8707z" fill="#00004d" fill-rule="evenodd"/><path clip-rule="evenodd" d="m151.611 161.107-12.905-18.669c-4.716-6.822-11.67-11.782-19.657-14.019l-18.549-5.197c0 11.046-8.9544 20-20.0002 20s-20-8.954-20-20l-18.5494 5.197c-7.9871 2.237-14.9404 7.197-19.6568 14.019l-12.90493 18.669v13.226h142.22233z" fill="#9b5921" fill-rule="evenodd"/><path d="m104.401 134.618c-4.362 8.787-13.426 14.826-23.9006 14.826-13.9583 0-25.4116-10.724-26.5707-24.382" stroke="#00004d" stroke-linecap="round" stroke-linejoin="round" stroke-width="2"/><g clip-rule="evenodd" fill="#00004d" fill-rule="evenodd"><path d="m98.7224 77.8888c0 1.9636-1.592 3.5556-3.5555 3.5556-1.9636 0-3.5556-1.592-3.5556-3.5556 0-1.9635 1.592-3.5555 3.5556-3.5555 1.9635 0 3.5555 1.592 3.5555 3.5555z"/><path d="m69.3885 77.8888c0 1.9636-1.592 3.5556-3.5556 3.5556s-3.5556-1.592-3.5556-3.5556c0-1.9635 1.592-3.5555 3.5556-3.5555s3.5556 1.592 3.5556 3.5555z"/></g></g></svg>