<svg fill="none" height="40" viewBox="0 0 41 40" width="41" xmlns="http://www.w3.org/2000/svg"><path d="m29.9997 13.3333v.5h.5 1.6666c1.1935 0 2.3381.4741 3.182 1.318s1.318 1.9885 1.318 3.182v16.6641.0007c-.0012.2301-.0705.4547-.1991.6455-.1287.191-.3111.3396-.5242.4272l-.0118.0048-.0115.0054c-.1272.06-.2666.0894-.4071.0858l-.0079-.0003-.0079.0001c-.1536.0009-.3058-.0285-.4479-.0866-.1417-.0579-.2706-.143-.3794-.2507-.0003-.0003-.0007-.0007-.001-.001l-3.9479-3.9645-.1465-.1472h-.2078-11.5333c-1.1935 0-2.3381-.4741-3.182-1.318s-1.318-1.9885-1.318-3.182v-2.4-.5h-.5-2.4667-.2076l-.1465.1471-4.6813 4.6979c-.00029.0003-.00059.0006-.00088.0009-.10883.1077-.2378.1929-.37956.2508-.14215.0581-.29435.0875-.44789.0866h-.00789l-.00788.0002c-.14055.0036-.27999-.0258-.40715-.0857l-.01153-.0055-.01179-.0048c-.21305-.0875-.39543-.2362-.52415-.4272-.12851-.1907-.1978-.4151-.19917-.645v-19.99865c0-1.19347.4741-2.33806 1.31802-3.18198.84391-.84391 1.9885-1.31802 3.18198-1.31802h16.66669c1.1934 0 2.338.47411 3.182 1.31802.8439.84392 1.318 1.98851 1.318 3.18198zm-16.1667 8.65h.5v-.5-3.15c0-1.1935.4741-2.3381 1.318-3.182s1.9885-1.318 3.182-1.318h8.3333.5v-.5-5.00005c0-.57463-.2282-1.12573-.6346-1.53206-.4063-.40633-.9574-.6346-1.532-.6346h-16.66669c-.57464 0-1.12574.22827-1.53207.6346s-.6346.95743-.6346 1.53206v15.98335 1.2132l.85481-.8609 2.33063-2.3473c.00041-.0004.00081-.0008.00122-.0012.10876-.1076.2376-.1927.3792-.2506.1422-.058.2944-.0874.4479-.0865h.0029zm-.5-.5h-2.65c-.2193-.0013-.4368.0407-.6398.1237-.2031.0829-.38779.2051-.54353.3596l-1.83333 1.8464v.5036zm20.1465 9.8535.8535.8536v-1.2071-12.65c0-.5747-.2283-1.1258-.6346-1.5321s-.9574-.6346-1.5321-.6346h-13.3333c-.5746 0-1.1257.2283-1.5321.6346-.4063.4063-.6346.9574-.6346 1.5321v8.8166c0 .5747.2283 1.1258.6346 1.5321.4064.4063.9575.6346 1.5321.6346h12.1488c.1541.0007.3065.032.4484.092.1422.06.271.1477.3791.258h-.0001l.0036.0035z" fill="#757575" stroke="#757575"/></svg>