<svg fill="none" height="40" viewBox="0 0 41 40" width="41" xmlns="http://www.w3.org/2000/svg"><path d="m35.7831 3.43334c-1.1946-.20578-2.4044-.3117-3.6166-.31666-4.1361-.00339-8.1859 1.18262-11.6667 3.41666-3.4897-2.20471-7.5389-3.36161-11.66665-3.33333-1.21226.00497-2.42199.11089-3.61667.31667-.39132.06746-.7457.27243-.99931.57798-.25361.30556-.38979.69163-.38402 1.08868v19.99996c-.00357.2449.04688.4876.14775.7108s.24969.4214.43587.5805.40514.2753.64131.3401c.23616.0649.48372.077.72507.0353 2.38836-.4135 4.83535-.3449 7.19675.2018 2.3615.5467 4.5896 1.5605 6.5532 2.9815l.2.1167h.1834c.1848.077.3831.1167.5833.1167.2003 0 .3985-.0397.5833-.1167h.1834l.2-.1167c1.9499-1.4528 4.1717-2.4994 6.5336-3.0777s4.8158-.6766 7.2164-.2889c.2413.0416.4889.0296.7251-.0353.2361-.0649.4551-.181.6413-.3401.1861-.1592.335-.3574.4358-.5806.1009-.2231.1513-.4658.1478-.7107v-19.99999c-.0174-.37974-.164-.74215-.4156-1.0271-.2516-.28496-.5931-.47534-.9678-.53957zm-16.95 22.14996c-3.0835-1.6221-6.5158-2.4688-9.99995-2.4666-.55 0-1.1 0-1.66667 0v-16.66669c.5551-.03199 1.11157-.03199 1.66667 0 3.55565-.00393 7.03365 1.03948 9.99995 3zm15-2.4c-.5666 0-1.1166 0-1.6666 0-3.4842-.0021-6.9165.8445-10 2.4667v-16.19999c2.9663-1.96052 6.4443-3.00393 10-3 .5551-.03199 1.1116-.03199 1.6666 0zm1.95 6.9167c-1.1946-.2058-2.4044-.3117-3.6166-.3167-4.1361-.0033-8.1859 1.1827-11.6667 3.4167-3.4808-2.234-7.5306-3.42-11.66665-3.4167-1.21226.005-2.42199.1109-3.61667.3167-.21695.0344-.42496.1114-.61206.2265s-.3496.2661-.47816.4442-.22064.3799-.27094.5937c-.0503.2139-.05784.4355-.02217.6523.0847.4328.33748.8144.70298 1.0612s.81392.3386 1.24702.2554c2.38836-.4135 4.83535-.3449 7.19675.2018 2.3615.5468 4.5896 1.5605 6.5532 2.9816.2823.201.6202.309.9667.309s.6844-.108.9667-.309c1.9636-1.4211 4.1918-2.4348 6.5532-2.9816 2.3614-.5467 4.8084-.6153 7.1968-.2018.4331.0832.8815-.0086 1.247-.2554s.6183-.6284.703-1.0612c.0356-.2168.0281-.4384-.0222-.6523-.0503-.2138-.1424-.4156-.2709-.5937-.1286-.1781-.2911-.3291-.4782-.4442s-.3951-.1921-.6121-.2265z" fill="#757575"/></svg>