<svg fill="none" height="40" viewBox="0 0 41 40" width="41" xmlns="http://www.w3.org/2000/svg"><path d="m18.8333 5.00002c-3.0942 0-6.0616 1.22916-8.2495 3.41709-2.18797 2.18789-3.41713 5.15539-3.41713 8.24959 0 .442.17559.8659.48815 1.1785s.73649.4882 1.17851.4882c.44203 0 .86595-.1756 1.17847-.4882.3126-.3126.4882-.7365.4882-1.1785 0-2.2102.878-4.3298 2.4408-5.8926 1.5628-1.56277 3.6824-2.44075 5.8925-2.44075 2.2102 0 4.3298.87798 5.8926 2.44075 1.5628 1.5628 2.4408 3.6824 2.4408 5.8926-.0053 1.5078-.4138 2.9867-1.1834 4.2833l-5.9333 12.3834c-.2923.5062-.7125.9267-1.2186 1.2192s-1.0802.4468-1.6647.4474c-.8841 0-1.7319-.3512-2.3571-.9763-.6251-.6251-.9763-1.473-.9763-2.357 0-.442-.1756-.866-.4881-1.1785-.3126-.3126-.7365-.4882-1.1785-.4882-.4421 0-.866.1756-1.1785.4882-.3126.3125-.4882.7365-.4882 1.1785 0 1.7681.7024 3.4638 1.9526 4.714 1.2503 1.2503 2.946 1.9527 4.7141 1.9527 1.1919-.0011 2.3618-.3217 3.3877-.9285 1.026-.6068 1.8705-1.4775 2.4456-2.5215l5.9333-12.3834c1.0304-1.771 1.5711-3.7843 1.5667-5.8333 0-3.0942-1.2292-6.0617-3.4171-8.24959-2.1879-2.18793-5.1554-3.41709-8.2496-3.41709zm-11.66663 19.99998c-.32964 0-.65187.0978-.92595.2809s-.48771.4434-.61385.748c-.12615.3045-.15915.6396-.09484.9629.0643.3233.22304.6203.45613.8534.23308.2331.53006.3918.85336.4561s.65841.0313.96295-.0948c.30455-.1262.56484-.3398.74798-.6139.18314-.274.28088-.5963.28088-.9259 0-.442-.17559-.866-.48815-1.1785-.31256-.3126-.73648-.4882-1.17851-.4882zm22.65003-22.99998c-.1751-.13132-.3744-.22687-.5864-.28119s-.4327-.06634-.6493-.03539c-.2167.03095-.4252.10428-.6135.21579s-.3528.25903-.4842.43412c-.1313.1751-.2268.37435-.2812.58637-.0543.21202-.0663.43267-.0353.64934.0309.21667.1042.42512.2157.61345.1116.18833.2591.35285.4342.48418 1.866 1.39546 3.3812 3.20645 4.4256 5.28938s1.5891 4.38053 1.591 6.71063c0 .442.1756.8659.4882 1.1785s.7365.4882 1.1785.4882.866-.1756 1.1785-.4882c.3126-.3126.4882-.7365.4882-1.1785-.0097-2.8462-.6783-5.6515-1.9535-8.19608-1.2752-2.54457-3.1223-4.75929-5.3965-6.4706zm-10.9834 12.99998c.4421 0 .866.1756 1.1785.4882.3126.3125.4882.7365.4882 1.1785s.1756.8659.4882 1.1785c.3125.3126.7364.4882 1.1785.4882.442 0 .8659-.1756 1.1785-.4882.3125-.3126.4881-.7365.4881-1.1785 0-1.3261-.5267-2.5979-1.4644-3.5355-.9377-.9377-2.2095-1.4645-3.5356-1.4645-1.326 0-2.5978.5268-3.5355 1.4645-.9377.9376-1.4645 2.2094-1.4645 3.5355-.0022.9972.2938 1.9723.85 2.8.2297.326.4922.6275.7834.9l.3333.3667c.1827.2738.2802.5957.2802.925 0 .3292-.0975.6511-.2802.925-.2514.3626-.3487.8101-.2705 1.2444.0781.4343.3252.8199.6872 1.0722.2786.1945.6101.2992.95.3.2687-.0004.5333-.0658.7712-.1906.238-.1248.4423-.3053.5954-.526.5697-.832.8746-1.8167.8746-2.825 0-1.0084-.3049-1.9931-.8746-2.825-.1752-.2487-.3703-.4828-.5833-.7l-.2333-.2334c-.0976-.092-.1868-.1923-.2667-.3-.1854-.2759-.2841-.6009-.2833-.9333 0-.442.1756-.866.4881-1.1785.3126-.3126.7365-.4882 1.1785-.4882zm-6.6666 10c.3296 0 .6518-.0977.9259-.2809.2741-.1831.4877-.4434.6139-.7479.1261-.3046.1591-.6397.0948-.963s-.223-.6203-.4561-.8534c-.2331-.233-.5301-.3918-.8534-.4561s-.6584-.0313-.9629.0949c-.3046.1261-.5649.3397-.748.6138-.1832.2741-.2809.5963-.2809.926 0 .442.1756.8659.4882 1.1785.3125.3125.7364.4881 1.1785.4881z" fill="#757575"/></svg>