<svg fill="none" height="88" viewBox="0 0 88 88" width="88" xmlns="http://www.w3.org/2000/svg"><circle cx="44" cy="44" fill="#eff6e7" r="44"/><g fill="#11a876"><ellipse cx="49" cy="49" rx="8.5" ry="9"/><path d="m56.9152 54.785c.94-1.2601 1.5851-2.7152 1.8877-4.2579.3025-1.5427.2548-3.1337-.1397-4.6555s-1.1257-2.9356-2.1396-4.137c-1.0139-1.2015-2.2846-2.1599-3.7184-2.8046-.3123-1.7969-1.0301-3.4989-2.0988-4.9768s-2.4602-2.6927-4.0687-3.5522c-1.6086-.8595-3.3919-1.341-5.2144-1.408-1.8226-.067-3.6365.2823-5.3038 1.0213-1.6673.7391-3.1442 1.8485-4.3185 3.2439-1.1743 1.3955-2.0151 3.0402-2.4585 4.8093-.4434 1.769-.4778 3.6159-.1004 5.4002.3773 1.7843 1.1564 3.4592 2.2781 4.8973l-2.085 2.07c-.2082.2109-.3492.4788-.4052.7697-.0561.291-.0247.5921.0902.8653.1125.2739.3036.5084.5492.6739s.5346.2546.8308.2561h8.535c.8499 1.7919 2.19 3.3064 3.8651 4.3682 1.6751 1.0619 3.6166 1.6276 5.5999 1.6318h9c.2961-.0015.5852-.0906.8308-.2561.2455-.1655.4366-.4.5492-.6739.1148-.2732.1462-.5743.0902-.8653-.0561-.2909-.1971-.5588-.4052-.7697zm-18.915-6.285c.002.5023.0421 1.0037.12 1.5h-4.005l.525-.51c.1406-.1395.2522-.3054.3283-.4882.0762-.1828.1154-.3788.1154-.5768 0-.1981-.0392-.3941-.1154-.5769-.0761-.1828-.1877-.3487-.3283-.4881-.8407-.8315-1.5072-1.8222-1.9605-2.9142-.4532-1.092-.6843-2.2635-.6795-3.4458 0-2.387.9482-4.6762 2.636-6.364s3.977-2.636 6.364-2.636c1.8625-.0112 3.6817.5615 5.2019 1.6378 1.5201 1.0762 2.6648 2.6017 3.2731 4.3622-.33 0-.645 0-.975 0-2.7848 0-5.4555 1.1062-7.4247 3.0753-1.9691 1.9692-3.0753 4.6399-3.0753 7.4247zm15.81 7.5.075.075h-5.385c-1.735-.0031-3.4153-.6077-4.7546-1.7106-1.3392-1.103-2.2547-2.6362-2.5903-4.3384-.3357-1.7022-.0708-3.4682.7495-4.997s2.1453-2.726 3.7492-3.3875 3.3876-.7465 5.0472-.2404c1.6595.5061 3.0923 1.5718 4.0542 3.0158.9619 1.4439 1.3934 3.1767 1.2211 4.9031-.1724 1.7264-.938 3.3397-2.1663 4.565-.2827.2769-.4444.6543-.45 1.05.0008.1984.041.3947.1182.5776.0773.1828.19.3484.3318.4874z"/></g></svg>