<svg fill="none" height="88" viewBox="0 0 88 88" width="88" xmlns="http://www.w3.org/2000/svg"><circle cx="44" cy="44" fill="#eff6e7" r="44"/><path clip-rule="evenodd" d="m55.9767 53.9832c.0158-.1372.0226-.2767.0226-.4207 0-3.5595-.9496-6.1987-2.6708-8.0235.7425-.378 1.6245-.6008 2.6708-.6008 4.5 0 6.0007 4.1243 6.0007 6.9368 0 1.4107-3.015 2.115-6.0233 2.1082zm-21.3075-8.4442c-1.719 1.8225-2.6684 4.464-2.6684 8.0235 0 .144.0067.2835.0202.4207-3.0082.0068-6.021-.6975-6.021-2.1082 0-2.8125 1.5008-6.9368 6.0008-6.9368 1.0462 0 1.9282.2228 2.6707.6008zm9.3308-4.3515c-1.4918 0-2.9226-.5926-3.9775-1.6475s-1.6475-2.4857-1.6475-3.9775.5926-2.9226 1.6475-3.9775 2.4857-1.6475 3.9775-1.6475 2.9226.5926 3.9775 1.6475 1.6475 2.4857 1.6475 3.9775-.5926 2.9226-1.6475 3.9775-2.4857 1.6475-3.9775 1.6475zm11.9993 2.25c-1.1935 0-2.3381-.4741-3.182-1.318s-1.318-1.9885-1.318-3.182.4741-2.3381 1.318-3.182 1.9885-1.318 3.182-1.318c1.1934 0 2.338.4741 3.1819 1.318s1.3181 1.9885 1.3181 3.182-.4742 2.3381-1.3181 3.182-1.9885 1.318-3.1819 1.318zm-23.9985 0c-1.1935 0-2.3381-.4741-3.182-1.318s-1.3181-1.9885-1.3181-3.182.4742-2.3381 1.3181-3.182 1.9885-1.318 3.182-1.318c1.1934 0 2.338.4741 3.1819 1.318s1.318 1.9885 1.318 3.182-.4741 2.3381-1.318 3.182-1.9885 1.318-3.1819 1.318zm11.9992 0c6.0007 0 10.125 2.25 10.125 10.125 0 2.1262-2.25 4.5-10.125 4.5s-10.125-2.1262-10.125-4.5c0-7.875 4.1242-10.125 10.125-10.125z" fill="#11a876" fill-rule="evenodd"/></svg>