<svg fill="none" height="88" viewBox="0 0 88 88" width="88" xmlns="http://www.w3.org/2000/svg"><circle cx="44" cy="44" fill="#eff6e7" r="44"/><path d="m44.645 32.15c-.2436-.1054-.5108-.1443-.7743-.1126-.2635.0316-.514.1326-.7257.2926l-7.17 5.67h-5.475c-.3978 0-.7794.158-1.0607.4393s-.4393.6629-.4393 1.0607v9c0 .3978.158.7793.4393 1.0606.2813.2814.6629.4394 1.0607.4394h5.475l7.095 5.67c.2639.2117.5917.328.93.33.2241.0037.4456-.0478.645-.15.2553-.1216.471-.3128.6222-.5517.1513-.2388.232-.5156.2328-.7983v-21c-.0008-.2827-.0815-.5595-.2328-.7983-.1512-.2389-.3669-.4301-.6222-.5517zm-2.145 19.23-5.07-4.05c-.2639-.2118-.5917-.328-.93-.33h-4.5v-6h4.5c.3383-.002.6661-.1183.93-.33l5.07-4.05zm6.21-19.245c-.197-.0276-.3975-.0161-.59.0338-.1926.0499-.3734.1372-.5322.257s-.2924.2697-.3933.4411c-.1008.1715-.1669.3611-.1945.5581s-.0161.3975.0338.59.1373.3734.257.5322c.242.3206.6014.5321.9992.5878 2.1243.3274 4.0613 1.4042 5.4607 3.0357 1.3993 1.6315 2.1685 3.7099 2.1685 5.8593s-.7692 4.2278-2.1685 5.8593c-1.3994 1.6315-3.3364 2.7083-5.4607 3.0357-.3978.0278-.7683.2126-1.0299.5136s-.3929.6936-.3651 1.0914.2126.7683.5136 1.0299.6936.3929 1.0914.3651h.21c2.8393-.4295 5.4304-1.863 7.3028-4.04 1.8725-2.1771 2.9023-4.9535 2.9023-7.825 0-2.8716-1.0298-5.6479-2.9023-7.825-1.8724-2.1771-4.4635-3.6105-7.3028-4.04zm-.69 14.67c-.3978.0636-.7541.2827-.9904.609s-.3333.7332-.2696 1.131.2827.7541.609.9904c.3264.2363.7332.3332 1.131.2696.1628-.0018.3244-.0271.48-.075 1.1685-.4144 2.18-1.1805 2.8953-2.1932.7154-1.0126 1.0995-2.222 1.0995-3.4618s-.3841-2.4492-1.0995-3.4618c-.7153-1.0127-1.7268-1.7789-2.8953-2.1932-.3779-.1273-.791-.0993-1.1482.0779-.3573.1773-.6295.4892-.7568.8671s-.0993.7909.078 1.1482c.1772.3573.4891.6295.867.7568.5692.2159 1.0592.5998 1.405 1.1008.3459.5011.5311 1.0954.5311 1.7042s-.1852 1.2031-.5311 1.7041c-.3458.501-.8358.885-1.405 1.1009z" fill="#11a876"/></svg>