<svg fill="none" height="88" viewBox="0 0 88 88" width="88" xmlns="http://www.w3.org/2000/svg"><circle cx="44" cy="44" fill="#eff6e7" r="44"/><path d="m54.5 35h-4.5v-1.5c0-.7956-.3161-1.5587-.8787-2.1213s-1.3257-.8787-2.1213-.8787h-6c-.7956 0-1.5587.3161-2.1213.8787s-.8787 1.3257-.8787 2.1213v1.5h-4.5c-1.1935 0-2.3381.4741-3.182 1.318s-1.318 1.9885-1.318 3.182v13.5c0 1.1935.4741 2.3381 1.318 3.182s1.9885 1.318 3.182 1.318h21c1.1935 0 2.3381-.4741 3.182-1.318s1.318-1.9885 1.318-3.182v-13.5c0-1.1935-.4741-2.3381-1.318-3.182s-1.9885-1.318-3.182-1.318zm-13.5-1.5h6v1.5h-6zm15 19.5c0 .3978-.158.7794-.4393 1.0607s-.6629.4393-1.0607.4393h-21c-.3978 0-.7794-.158-1.0607-.4393s-.4393-.6629-.4393-1.0607v-7.5h6v1.5c0 .3978.158.7794.4393 1.0607s.6629.4393 1.0607.4393.7794-.158 1.0607-.4393.4393-.6629.4393-1.0607v-1.5h6v1.5c0 .3978.158.7794.4393 1.0607s.6629.4393 1.0607.4393.7794-.158 1.0607-.4393.4393-.6629.4393-1.0607v-1.5h6zm0-10.5h-24v-3c0-.3978.158-.7794.4393-1.0607s.6629-.4393 1.0607-.4393h21c.3978 0 .7794.158 1.0607.4393s.4393.6629.4393 1.0607z" fill="#11a876"/></svg>