<svg fill="none" height="39" viewBox="0 0 133 39" width="133" xmlns="http://www.w3.org/2000/svg"><path d="m132.265 33.8457c0 2.0368-1.685 3.6866-3.768 3.6866h-123.28867c-2.08218 0-3.77229-1.6498-3.77229-3.6866v-29.39929c0-2.03581 1.69011-3.691405 3.77229-3.691405h123.28767c2.084 0 3.768 1.655595 3.768 3.691405z" fill="#000"/><path d="m128.1.799254c2.268 0 4.114 1.799906 4.114 4.011866v28.66468c0 2.2119-1.846 4.0118-4.114 4.0118h-122.49888c-2.26868 0-4.11473-1.7999-4.11473-4.0118v-28.66468c0-2.21196 1.84605-4.011866 4.11473-4.011866zm0-.7655846h-122.49888c-2.69375 0-4.899948 2.1510506-4.899948 4.7774506v28.66468c0 2.6264 2.206198 4.7774 4.899948 4.7774h122.49888c2.693 0 4.9-2.151 4.9-4.7774v-28.66468c0-2.6264-2.207-4.7774506-4.9-4.7774506z" fill="#757575"/><g fill="#fff"><path d="m30.226 18.937c-.0284-3.0795 2.5862-4.5778 2.7057-4.6475-1.4807-2.1049-3.7759-2.3925-4.5824-2.4155-1.9276-.1978-3.7974 1.1246-4.7794 1.1246-1.0015 0-2.5137-1.1055-4.1434-1.073-2.0972.0315-4.0591 1.2154-5.1351 3.0538-2.2207 3.7483-.5645 9.2567 1.5631 12.2866 1.0642 1.4839 2.3078 3.1407 3.9356 3.0824 1.5925-.064 2.1873-.9899 4.1091-.9899 1.9041 0 2.4627.9899 4.1228.9526 1.7091-.0267 2.7851-1.4905 3.8122-2.9878 1.2298-1.7007 1.7238-3.3757 1.7434-3.4617-.0402-.0134-3.3193-1.2335-3.3516-4.9246z"/><path d="m27.09 9.88087c.8565-1.04435 1.4426-2.46516 1.2799-3.90699-1.2397.0535-2.79.83605-3.6828 1.85747-.7899.90007-1.4955 2.37535-1.3132 3.76275 1.3926.1012 2.8224-.6851 3.7161-1.71323z"/><path d="m53.2734 30.1361h-2.2256l-1.2191-3.735h-4.2375l-1.1613 3.735h-2.1667l4.1983-12.7157h2.593zm-3.8122-5.302-1.1025-3.3204c-.1166-.3392-.3351-1.138-.6576-2.3954h-.0392c-.1283.5408-.3351 1.3396-.6193 2.3954l-1.0829 3.3204z"/><path d="m64.0698 25.4388c0 1.5593-.4322 2.7919-1.2966 3.6967-.7742.8055-1.7355 1.2078-2.8831 1.2078-1.2387 0-2.1285-.4338-2.6705-1.3014h-.0392v4.83h-2.0893v-9.8864c0-.9804-.0265-1.9865-.0774-3.0184h1.8375l.1166 1.4533h.0392c.6967-1.095 1.7541-1.6416 3.1732-1.6416 1.1093 0 2.0354.4271 2.7763 1.2823.7428.8561 1.1133 1.9817 1.1133 3.3777zm-2.1286.0745c0-.8924-.2058-1.6282-.6193-2.2072-.4518-.6039-1.0584-.9058-1.8189-.9058-.5155 0-.9839.1682-1.4024.4997-.4194.3344-.6938.7711-.8222 1.3119-.0647.2523-.097.4586-.097.6211v1.5288c0 .6669.2097 1.2297.6292 1.6893.4194.4596.9643.6889 1.6346.6889.7869 0 1.3994-.2962 1.8375-.8867.439-.5915.6585-1.3711.6585-2.34z"/><path d="m74.8862 25.4388c0 1.5593-.4322 2.7919-1.2976 3.6967-.7732.8055-1.7345 1.2078-2.8821 1.2078-1.2387 0-2.1285-.4338-2.6695-1.3014h-.0392v4.83h-2.0893v-9.8864c0-.9804-.0265-1.9865-.0774-3.0184h1.8374l.1167 1.4533h.0391c.6958-1.095 1.7533-1.6416 3.1733-1.6416 1.1083 0 2.0344.4271 2.7772 1.2823.7399.8561 1.1114 1.9817 1.1114 3.3777zm-2.1286.0745c0-.8924-.2068-1.6282-.6203-2.2072-.4518-.6039-1.0564-.9058-1.8179-.9058-.5164 0-.9839.1682-1.4033.4997-.4195.3344-.6929.7711-.8213 1.3119-.0637.2523-.097.4586-.097.6211v1.5288c0 .6669.2097 1.2297.6272 1.6893.4194.4586.9643.6889 1.6366.6889.7869 0 1.3994-.2962 1.8375-.8867.439-.5915.6585-1.3711.6585-2.34z"/><path d="m86.979 26.5699c0 1.0816-.3852 1.9616-1.1584 2.641-.8496.7424-2.0325 1.1131-3.5524 1.1131-1.4034 0-2.5284-.2637-3.38-.7921l.4841-1.6979c.9173.5408 1.9237.8122 3.0203.8122.787 0 1.3995-.1739 1.8395-.5198.438-.3459.6566-.8103.6566-1.3893 0-.516-.1804-.9507-.542-1.3033-.3596-.3526-.9604-.6803-1.7992-.9832-2.2834-.8303-3.4241-2.0467-3.4241-3.6461 0-1.0453.3998-1.9024 1.2005-2.5694.7977-.6678 1.8619-1.0013 3.1928-1.0013 1.1867 0 2.1726.2016 2.9595.6039l-.5223 1.6606c-.735-.3898-1.566-.5848-2.496-.5848-.735 0-1.3093.1768-1.7209.5284-.3479.3144-.5223.6975-.5223 1.1514 0 .5026.1989.9182.5988 1.245.3478.3019.9799.6287 1.8972.9813 1.1221.4405 1.9463.9555 2.4764 1.546.5283.5885.7919 1.3252.7919 2.2043z"/><path d="m93.8867 22.4956h-2.303v4.4516c0 1.1323.4058 1.6979 1.2192 1.6979.3733 0 .683-.0315.928-.0946l.0578 1.547c-.4116.15-.9535.2255-1.6248.2255-.8251 0-1.47-.2456-1.9355-.7357-.4635-.4912-.6968-1.3148-.6968-2.4719v-4.6217h-1.3719v-1.5288h1.3719v-1.6788l2.0521-.6038v2.2826h2.303z"/><path d="m104.278 25.4758c0 1.4093-.414 2.5664-1.239 3.4713-.865.9316-2.014 1.396-3.4455 1.396-1.3799 0-2.4784-.4463-3.2977-1.3387s-1.2289-2.0189-1.2289-3.3767c0-1.4208.4214-2.5846 1.2671-3.4894.8438-.9058 1.9825-1.3587 3.4143-1.3587 1.3797 0 2.4897.4462 3.3277 1.3396.802.8666 1.202 1.9855 1.202 3.3566zm-2.168.0659c0-.8456-.185-1.5708-.56-2.1756-.439-.7319-1.065-1.0969-1.8762-1.0969-.8398 0-1.4778.3659-1.9159 1.0969-.3753.6058-.5605 1.3424-.5605 2.2138 0 .8457.1852 1.5709.5605 2.1747.4518.7319 1.0829 1.0969 1.8973 1.0969.7978 0 1.4238-.3726 1.8758-1.116.385-.6163.579-1.3491.579-2.1938z"/><path d="m111.069 22.7586c-.206-.0373-.427-.0564-.658-.0564-.735 0-1.304.2704-1.703.8122-.348.4777-.523 1.0816-.523 1.8107v4.8108h-2.088l.019-6.2813c0-1.0568-.026-2.019-.078-2.8866h1.82l.076 1.7543h.058c.221-.6029.569-1.0883 1.045-1.4523.465-.3278.968-.4912 1.51-.4912.193 0 .368.0134.522.0373z"/><path d="m120.413 25.1177c0 .365-.024.6726-.076.9239h-6.268c.025.9058.327 1.5986.909 2.0763.529.4271 1.212.6411 2.051.6411.928 0 1.774-.1442 2.536-.4338l.327 1.4142c-.89.3783-1.94.5666-3.152.5666-1.459 0-2.603-.4185-3.436-1.2546-.831-.836-1.248-1.9587-1.248-3.3671 0-1.3826.387-2.534 1.162-3.4522.812-.9803 1.908-1.4705 3.288-1.4705 1.356 0 2.382.4902 3.078 1.4705.552.7787.829 1.7419.829 2.8856zm-1.992-.5284c.014-.6039-.122-1.1256-.406-1.5661-.361-.5666-.917-.8494-1.665-.8494-.683 0-1.238.2761-1.663.8303-.347.4405-.554.9689-.618 1.5842h4.352z"/><path d="m48.7704 9.5971c0 1.1246-.346 1.9712-1.0369 2.5397-.6399.5246-1.5493.7873-2.7273.7873-.584 0-1.0838-.0248-1.5023-.0745v-6.14476c.5459-.086 1.1339-.12995 1.7689-.12995 1.1221 0 1.9678.23792 2.5382.71375.6389.53794.9594 1.30711.9594 2.30846zm-1.0829.02771c0-.72904-.198-1.288-.5939-1.67784-.3959-.38888-.9741-.5838-1.7356-.5838-.3233 0-.5987.02102-.8271.06497v4.67136c.1265.0191.3577.0277.6939.0277.7859 0 1.3925-.213 1.8198-.6392.4273-.4261.6429-1.0472.6429-1.86319z"/><path d="m54.5124 10.5797c0 .6927-.2029 1.2602-.6086 1.7055-.4253.4577-.9888.686-1.6924.686-.6782 0-1.2181-.2188-1.6209-.6583-.4018-.4386-.6027-.9918-.6027-1.6587 0-.69753.2068-1.26986.6223-1.71417.4155-.4443.9741-.66693 1.6777-.66693.6782 0 1.2231.21881 1.6356.65738.392.42615.589.97651.589 1.64922zm-1.0652.0324c0-.4156-.0922-.772-.2754-1.06915-.2156-.35927-.5224-.5389-.9212-.5389-.4126 0-.7262.17963-.9418.5389-.1842.29715-.2754.65925-.2754 1.08735 0 .4156.0922.772.2754 1.0692.2225.3592.5322.5389.932.5389.392 0 .6997-.1825.9212-.5485.1901-.3029.2852-.6621.2852-1.0778z"/><path d="m62.2109 8.36429-1.4455 4.50421h-.9408l-.5987-1.9559c-.1519-.4883-.2754-.97367-.3715-1.45523h-.0186c-.0892.49494-.2126.97933-.3714 1.45523l-.636 1.9559h-.9516l-1.3592-4.50421h1.0554l.5224 2.14121c.1264.5064.2303.989.3136 1.4457h.0186c.0764-.3765.2028-.8561.3812-1.4361l.6556-2.14986h.8369l.6282 2.10396c.1519.5131.2754 1.0071.3704 1.483h.0284c.0696-.4635.1745-.9574.3136-1.483l.5606-2.10396h1.0084z"/><path d="m67.5351 12.869h-1.027v-2.5798c0-.79498-.3097-1.19247-.931-1.19247-.3047 0-.5507.10893-.7418.32773-.1892.21881-.2852.47679-.2852.77204v2.6715h-1.027v-3.21613c0-.39557-.0128-.82459-.0373-1.28895h.9026l.048.70419h.0284c.1196-.21881.298-.39939.5322-.54367.2783-.16817.5899-.25321.931-.25321.4312 0 .7898.13568 1.075.408.3548.33346.5321.83127.5321 1.49247z"/><path d="m70.3673 12.8687h-1.026v-6.57088h1.026z"/><path d="m76.4143 10.5797c0 .6927-.2029 1.2602-.6086 1.7055-.4253.4577-.9898.686-1.6925.686-.6791 0-1.2191-.2188-1.6209-.6583-.4018-.4386-.6027-.9918-.6027-1.6587 0-.69753.2068-1.26986.6223-1.71417.4156-.4443.9742-.66693 1.6768-.66693.6791 0 1.223.21881 1.6366.65738.392.42615.589.97651.589 1.64922zm-1.0663.0324c0-.4156-.0921-.772-.2753-1.06915-.2147-.35927-.5224-.5389-.9203-.5389-.4135 0-.7271.17963-.9417.5389-.1843.29715-.2754.65925-.2754 1.08735 0 .4156.0921.772.2754 1.0692.2224.3592.5321.5389.9319.5389.392 0 .6988-.1825.9203-.5485.191-.3029.2851-.6621.2851-1.0778z"/><path d="m81.3844 12.869h-.9222l-.0765-.5188h-.0284c-.3155.4137-.7653.621-1.3494.621-.4361 0-.7889-.1366-1.0545-.408-.2411-.2465-.3616-.5532-.3616-.9172 0-.5504.2352-.9698.7085-1.2603.4724-.2905 1.1368-.43285 1.9923-.42616v-.08408c0-.59336-.3194-.88956-.9594-.88956-.4557 0-.8575.11179-1.2044.33346l-.2087-.65737c.4292-.25894.9594-.38889 1.5846-.38889 1.2074 0 1.813.62107 1.813 1.8632v1.6587c0 .4501.0226.8084.0667 1.074zm-1.0663-1.5479v-.6946c-1.1328-.0191-1.6993.2838-1.6993.9077 0 .235.0647.4108.197.5284.1323.1175.3009.1758.5018.1758.2254 0 .436-.0698.6281-.2083.1931-.1395.3117-.3163.3558-.5332.0107-.0487.0166-.1079.0166-.1758z"/><path d="m87.2205 12.8687h-.9114l-.048-.7233h-.0284c-.2911.5504-.787.8256-1.4837.8256-.5567 0-1.0202-.2131-1.3877-.6393-.3675-.4261-.5508-.9793-.5508-1.6587 0-.72903.199-1.31952.5988-1.77052.3871-.42041.8614-.63062 1.4259-.63062.6203 0 1.0545.20352 1.3014.61151h.0196v-2.58555h1.028v5.35738c0 .4386.0118.8428.0363 1.2135zm-1.0643-1.8995v-.751c0-.13-.0098-.23506-.0284-.31532-.0578-.24078-.1823-.44334-.3714-.60673-.1911-.16339-.4214-.24556-.687-.24556-.3832 0-.683.1481-.9035.44525-.2186.29716-.3293.67646-.3293 1.13986 0 .4453.1048.8065.3155 1.0845.2225.2962.5224.4443.8977.4443.3371 0 .6066-.1232.8114-.3707.198-.2284.295-.5035.295-.8246z"/><path d="m96.0041 10.5797c0 .6927-.2029 1.2602-.6086 1.7055-.4253.4577-.9878.686-1.6924.686-.6772 0-1.2172-.2188-1.6209-.6583-.4018-.4386-.6027-.9918-.6027-1.6587 0-.69753.2068-1.26986.6223-1.71417.4155-.4443.9741-.66693 1.6787-.66693.6772 0 1.223.21881 1.6346.65738.392.42615.589.97651.589 1.64922zm-1.0643.0324c0-.4156-.0921-.772-.2753-1.06915-.2166-.35927-.5224-.5389-.9222-.5389-.4116 0-.7252.17963-.9418.5389-.1842.29715-.2754.65925-.2754 1.08735 0 .4156.0922.772.2754 1.0692.2225.3592.5322.5389.932.5389.392 0 .7007-.1825.9222-.5485.1891-.3029.2851-.6621.2851-1.0778z"/><path d="m101.526 12.869h-1.026v-2.5798c0-.79498-.309-1.19247-.9317-1.19247-.3047 0-.5507.10893-.7408.32773-.1901.21881-.2852.47679-.2852.77204v2.6715h-1.028v-3.21613c0-.39557-.0118-.82459-.0363-1.28895h.9016l.048.70419h.0285c.1205-.21881.2989-.39939.5321-.54367.2793-.16817.5899-.25321.932-.25321.4298 0 .7888.13568 1.0738.408.356.33346.532.83127.532 1.49247z"/><path d="m108.438 9.11491h-1.131v2.18809c0 .5561.201.8341.598.8341.185 0 .338-.0153.458-.0468l.027.7596c-.203.0745-.47.1118-.798.1118-.406 0-.721-.1204-.95-.3612s-.343-.6459-.343-1.2144v-2.27119h-.675v-.75006h.675v-.82555l1.007-.2962v1.12079h1.131v.75102z"/><path d="m113.875 12.8687h-1.028v-2.5607c0-.80738-.31-1.21155-.93-1.21155-.476 0-.802.23409-.98.70228-.031.09842-.048.21877-.048.36027v2.7088h-1.026v-6.56998h1.026v2.71455h.019c.324-.49399.787-.74051 1.388-.74051.425 0 .777.13568 1.057.408.347.33919.522.84369.522 1.51064z"/><path d="m119.483 10.4038c0 .1797-.014.3306-.038.4539h-3.08c.014.4453.161.7845.446 1.0195.26.2102.596.3153 1.008.3153.456 0 .871-.0707 1.246-.2131l.16.6956c-.438.1854-.953.2781-1.55.2781-.715 0-1.279-.2054-1.687-.6163-.409-.4109-.612-.9622-.612-1.654 0-.6793.189-1.24496.57-1.69595.398-.48157.936-.72235 1.615-.72235.665 0 1.169.24078 1.511.72235.275.38219.411.85516.411 1.41695zm-.98-.2589c.008-.29716-.06-.55323-.199-.76917-.178-.27805-.45-.41755-.817-.41755-.335 0-.609.13568-.817.40799-.171.2169-.272.47584-.305.77873z"/></g></svg>