<svg width="133" height="39" viewBox="0 0 133 39" fill="none" xmlns="http://www.w3.org/2000/svg">
<path d="M127.398 38.2795H4.89946C2.20571 38.2795 -0.000488281 36.1255 -0.000488281 33.4955V4.79133C-0.000488281 2.16131 2.20571 0.00730617 4.89946 0.00730617H127.398C130.092 0.00730617 132.298 2.16131 132.298 4.79133V33.4955C132.298 36.1255 130.092 38.2795 127.398 38.2795Z" fill="black"/>
<path d="M127.398 0.773944C129.667 0.773944 131.513 2.57632 131.513 4.79133V33.4955C131.513 35.7105 129.667 37.5128 127.398 37.5128H4.89946C2.63078 37.5128 0.784728 35.7105 0.784728 33.4955V4.79133C0.784728 2.57632 2.63078 0.773944 4.89946 0.773944H127.398ZM127.398 0.00730617H4.89946C2.20571 0.00730617 -0.000488281 2.16131 -0.000488281 4.79133V33.4955C-0.000488281 36.1255 2.20571 38.2795 4.89946 38.2795H127.398C130.092 38.2795 132.298 36.1255 132.298 33.4955V4.79133C132.298 2.16131 130.092 0.00730617 127.398 0.00730617Z" fill="#757575"/>
<path d="M46.4685 9.80879C46.4685 10.6077 46.2235 11.2476 45.7409 11.7248C45.186 12.2905 44.4632 12.5752 43.5776 12.5752C42.7311 12.5752 42.0084 12.2857 41.4155 11.7152C40.8213 11.1364 40.5249 10.4259 40.5249 9.57557C40.5249 8.72521 40.8213 8.01478 41.4155 7.4407C42.0084 6.86542 42.7311 6.57599 43.5776 6.57599C43.999 6.57599 44.4008 6.66091 44.7842 6.81878C45.1664 6.97785 45.4775 7.19313 45.7029 7.45864L45.1909 7.96336C44.7977 7.51007 44.2623 7.28642 43.5776 7.28642C42.9602 7.28642 42.4249 7.49691 41.9704 7.92149C41.5208 8.34727 41.2954 8.89863 41.2954 9.57557C41.2954 10.2525 41.5208 10.8087 41.9704 11.2344C42.4249 11.6542 42.9602 11.8695 43.5776 11.8695C44.2329 11.8695 44.7842 11.6542 45.2191 11.2296C45.5057 10.9486 45.6686 10.5611 45.7115 10.0659H43.5776V9.37464H46.4244C46.4587 9.52414 46.4685 9.66886 46.4685 9.80879Z" fill="white" stroke="white" stroke-width="0.16" stroke-miterlimit="10"/>
<path d="M50.9844 7.41197H48.3103V9.22989H50.721V9.92118H48.3103V11.7391H50.9844V12.4436H47.5532V6.70752H50.9844V7.41197Z" fill="white" stroke="white" stroke-width="0.16" stroke-miterlimit="10"/>
<path d="M54.1722 12.4436H53.4152V7.41197H51.7749V6.70752H55.8137V7.41197H54.1722V12.4436Z" fill="white" stroke="white" stroke-width="0.16" stroke-miterlimit="10"/>
<path d="M58.7363 12.4436V6.70752H59.4921V12.4436H58.7363Z" fill="white" stroke="white" stroke-width="0.16" stroke-miterlimit="10"/>
<path d="M62.8426 12.4436H62.0917V7.41197H60.4453V6.70752H64.489V7.41197H62.8426V12.4436Z" fill="white" stroke="white" stroke-width="0.16" stroke-miterlimit="10"/>
<path d="M72.1351 11.7057C71.5556 12.2857 70.8378 12.5752 69.9815 12.5752C69.1204 12.5752 68.4025 12.2857 67.8231 11.7057C67.2449 11.1268 66.957 10.4164 66.957 9.57557C66.957 8.73478 67.2449 8.02435 67.8231 7.44548C68.4025 6.86542 69.1204 6.57599 69.9815 6.57599C70.8329 6.57599 71.5507 6.86542 72.1302 7.45027C72.7132 8.03392 73.0011 8.73956 73.0011 9.57557C73.0011 10.4164 72.7132 11.1268 72.1351 11.7057ZM68.3829 11.2249C68.819 11.6542 69.3494 11.8695 69.9815 11.8695C70.6087 11.8695 71.144 11.6542 71.5752 11.2249C72.0101 10.7955 72.2306 10.2441 72.2306 9.57557C72.2306 8.907 72.0101 8.35565 71.5752 7.92628C71.144 7.49691 70.6087 7.28163 69.9815 7.28163C69.3494 7.28163 68.819 7.49691 68.3829 7.92628C67.948 8.35565 67.7275 8.907 67.7275 9.57557C67.7275 10.2441 67.948 10.7955 68.3829 11.2249Z" fill="white" stroke="white" stroke-width="0.16" stroke-miterlimit="10"/>
<path d="M74.0635 12.4436V6.70752H74.9822L77.8389 11.1686H77.872L77.8389 10.0659V6.70752H78.5947V12.4436H77.8058L74.8144 7.7624H74.7813L74.8144 8.8699V12.4436H74.0635Z" fill="white" stroke="white" stroke-width="0.16" stroke-miterlimit="10"/>
<path d="M66.7706 20.8202C64.4688 20.8202 62.5885 22.5305 62.5885 24.8902C62.5885 27.2308 64.4688 28.959 66.7706 28.959C69.0772 28.959 70.9576 27.2308 70.9576 24.8902C70.9576 22.5305 69.0772 20.8202 66.7706 20.8202ZM66.7706 27.3564C65.5076 27.3564 64.421 26.3386 64.421 24.8902C64.421 23.4227 65.5076 22.4228 66.7706 22.4228C68.0335 22.4228 69.125 23.4227 69.125 24.8902C69.125 26.3386 68.0335 27.3564 66.7706 27.3564ZM57.6456 20.8202C55.339 20.8202 53.4635 22.5305 53.4635 24.8902C53.4635 27.2308 55.339 28.959 57.6456 28.959C59.9511 28.959 61.8277 27.2308 61.8277 24.8902C61.8277 22.5305 59.9511 20.8202 57.6456 20.8202ZM57.6456 27.3564C56.3815 27.3564 55.2912 26.3386 55.2912 24.8902C55.2912 23.4227 56.3815 22.4228 57.6456 22.4228C58.9086 22.4228 59.9952 23.4227 59.9952 24.8902C59.9952 26.3386 58.9086 27.3564 57.6456 27.3564ZM46.7874 22.0676V23.797H51.0172C50.8935 24.7634 50.5628 25.4738 50.0556 25.969C49.4382 26.567 48.4766 27.2308 46.7874 27.2308C44.1843 27.2308 42.1459 25.1796 42.1459 22.6381C42.1459 20.0966 44.1843 18.0455 46.7874 18.0455C48.1949 18.0455 49.219 18.5825 49.9748 19.2785L51.223 18.0598C50.1659 17.0743 48.7596 16.3172 46.7874 16.3172C43.2178 16.3172 40.2178 19.153 40.2178 22.6381C40.2178 26.1233 43.2178 28.959 46.7874 28.959C48.7167 28.959 50.1659 28.3419 51.3051 27.1841C52.4725 26.0443 52.8363 24.4417 52.8363 23.1476C52.8363 22.7458 52.8021 22.3762 52.7408 22.0676H46.7874ZM91.1882 23.4083C90.844 22.4982 89.7819 20.8202 87.6186 20.8202C85.4749 20.8202 83.6901 22.4695 83.6901 24.8902C83.6901 27.1698 85.4565 28.959 87.8244 28.959C89.739 28.959 90.844 27.8192 91.2984 27.1554L89.8775 26.2309C89.4034 26.9078 88.7578 27.3564 87.8244 27.3564C86.8971 27.3564 86.2319 26.9413 85.8056 26.1233L91.3805 23.8712L91.1882 23.4083ZM85.5043 24.7634C85.4565 23.1943 86.7525 22.3905 87.6811 22.3905C88.4087 22.3905 89.0261 22.7458 89.2319 23.2541L85.5043 24.7634ZM80.973 28.7114H82.8056V16.7514H80.973V28.7114ZM77.9718 21.7268H77.9106C77.499 21.2507 76.7138 20.8202 75.7191 20.8202C73.6317 20.8202 71.7232 22.6094 71.7232 24.9033C71.7232 27.1841 73.6317 28.959 75.7191 28.959C76.7138 28.959 77.499 28.5248 77.9106 28.0345H77.9718V28.6181C77.9718 30.1741 77.1205 31.0101 75.7473 31.0101C74.6276 31.0101 73.9331 30.2208 73.6464 29.557L72.0527 30.2064C72.5121 31.2852 73.7285 32.6128 75.7473 32.6128C77.8959 32.6128 79.7089 31.3785 79.7089 28.3753V21.0678H77.9718V21.7268ZM75.8759 27.3564C74.6129 27.3564 73.5558 26.3242 73.5558 24.9033C73.5558 23.4693 74.6129 22.4228 75.8759 22.4228C77.1205 22.4228 78.1017 23.4693 78.1017 24.9033C78.1017 26.3242 77.1205 27.3564 75.8759 27.3564ZM99.768 16.7514H95.385V28.7114H97.2127V24.1798H99.768C101.798 24.1798 103.788 22.7458 103.788 20.465C103.788 18.1854 101.793 16.7514 99.768 16.7514ZM99.8158 22.5161H97.2127V18.415H99.8158C101.18 18.415 101.96 19.5213 101.96 20.465C101.96 21.3907 101.18 22.5161 99.8158 22.5161ZM111.114 20.7975C109.793 20.7975 108.42 21.3668 107.855 22.6285L109.477 23.2923C109.826 22.6285 110.468 22.4133 111.147 22.4133C112.095 22.4133 113.057 22.9694 113.071 23.9513V24.0769C112.741 23.8903 112.033 23.6141 111.162 23.6141C109.415 23.6141 107.635 24.5529 107.635 26.3051C107.635 27.9077 109.066 28.9399 110.674 28.9399C111.904 28.9399 112.583 28.3981 113.009 27.7678H113.071V28.6923H114.837V24.1044C114.837 21.9839 113.215 20.7975 111.114 20.7975ZM110.893 27.3516C110.296 27.3516 109.463 27.0621 109.463 26.3386C109.463 25.4128 110.501 25.0576 111.4 25.0576C112.205 25.0576 112.583 25.231 113.071 25.4595C112.928 26.567 111.952 27.3516 110.893 27.3516ZM121.268 21.0594L119.167 26.2441H119.104L116.933 21.0594H114.961L118.225 28.3048L116.363 32.3365H118.273L123.301 21.0594H121.268ZM104.793 28.7114H106.625V16.7514H104.793V28.7114Z" fill="white"/>
<path d="M10.226 7.22047C9.93808 7.51469 9.77148 7.97276 9.77148 8.56598V29.7257C9.77148 30.3189 9.93808 30.777 10.226 31.0712L10.297 31.1358L22.4415 19.2834V19.0035L10.297 7.15111L10.226 7.22047Z" fill="url(#paint0_linear)"/>
<path d="M26.4851 23.236L22.4414 19.2832V19.0033L26.49 15.0505L26.5806 15.1019L31.3752 17.7654C32.7435 18.5213 32.7435 19.7652 31.3752 20.5258L26.5806 23.1845L26.4851 23.236Z" fill="url(#paint1_linear)"/>
<path d="M26.5804 23.185L22.4411 19.1437L10.2256 31.0714C10.6801 31.5379 11.4212 31.5941 12.264 31.1276L26.5804 23.185Z" fill="url(#paint2_linear)"/>
<path d="M26.5804 15.1021L12.264 7.15943C11.4212 6.69777 10.6801 6.75398 10.2256 7.22042L22.4411 19.1434L26.5804 15.1021Z" fill="url(#paint3_linear)"/>
<defs>
<linearGradient id="paint0_linear" x1="21.3632" y1="29.9461" x2="5.31035" y2="13.5042" gradientUnits="userSpaceOnUse">
<stop stop-color="#00A0FF"/>
<stop offset="0.0066" stop-color="#00A1FF"/>
<stop offset="0.2601" stop-color="#00BEFF"/>
<stop offset="0.5122" stop-color="#00D2FF"/>
<stop offset="0.7604" stop-color="#00DFFF"/>
<stop offset="1" stop-color="#00E3FF"/>
</linearGradient>
<linearGradient id="paint1_linear" x1="33.157" y1="19.1419" x2="9.44431" y2="19.1419" gradientUnits="userSpaceOnUse">
<stop stop-color="#FFE000"/>
<stop offset="0.4087" stop-color="#FFBD00"/>
<stop offset="0.7754" stop-color="#FFA500"/>
<stop offset="1" stop-color="#FF9C00"/>
</linearGradient>
<linearGradient id="paint2_linear" x1="24.3296" y1="16.9467" x2="2.56059" y2="-5.34975" gradientUnits="userSpaceOnUse">
<stop stop-color="#FF3A44"/>
<stop offset="1" stop-color="#C31162"/>
</linearGradient>
<linearGradient id="paint3_linear" x1="7.15068" y1="38.1109" x2="16.8715" y2="28.1546" gradientUnits="userSpaceOnUse">
<stop stop-color="#32A071"/>
<stop offset="0.0685" stop-color="#2DA771"/>
<stop offset="0.4762" stop-color="#15CF74"/>
<stop offset="0.8009" stop-color="#06E775"/>
<stop offset="1" stop-color="#00F076"/>
</linearGradient>
</defs>
</svg>
