<svg fill="none" height="126" viewBox="0 0 127 126" width="127" xmlns="http://www.w3.org/2000/svg" xmlns:xlink="http://www.w3.org/1999/xlink"><filter id="a" color-interpolation-filters="sRGB" filterUnits="userSpaceOnUse" height="126" width="126" x=".242188" y="0"><feFlood flood-opacity="0" result="BackgroundImageFix"/><feColorMatrix in="SourceAlpha" type="matrix" values="0 0 0 0 0 0 0 0 0 0 0 0 0 0 0 0 0 0 127 0"/><feOffset dy="14"/><feGaussianBlur stdDeviation="22"/><feColorMatrix type="matrix" values="0 0 0 0 0.0561111 0 0 0 0 0.0777333 0 0 0 0 0.133333 0 0 0 0.08 0"/><feBlend in2="BackgroundImageFix" mode="normal" result="effect1_dropShadow"/><feBlend in="SourceGraphic" in2="effect1_dropShadow" mode="normal" result="shape"/></filter><g filter="url(#a)"><circle cx="63.2422" cy="49" fill="#11a876" r="19"/></g><path d="m64.8249 54.7917c-.2431.0003-.4787-.0844-.6659-.2396-.1055-.0874-.1927-.1948-.2566-.316s-.1033-.2538-.1159-.3903c-.0125-.1364.0019-.274.0426-.4048.0406-.1308.1067-.2523.1944-.3576h.0001l2.5323-3.0417h-8.8557c-.2763 0-.5412-.1097-.7366-.3051-.1953-.1953-.3051-.4603-.3051-.7365 0-.2763.1098-.5413.3051-.7366.1954-.1954.4603-.3051.7366-.3051h8.8557l-2.5324-3.0417-.0001-.0002c-.1768-.2126-.2618-.4868-.2365-.7622.0254-.2753.1592-.5293.3718-.7061.2127-.1767.4869-.2618.7622-.2364.2754.0254.5293.1591.7061.3717v.0001l3.9582 4.7497.0064.0078.0059.0083c.0337.0478.0638.098.0901.1502l.0221.0439.0154.011.0272.0686c.0472.1195.0719.2466.0729.375v.0039c-.0009.1133-.0202.2257-.0573.3327-.0028.0281-.0097.0648-.026.102-.0207.0473-.0502.0838-.08.1121-.0198.035-.0413.0691-.0644.102l-.0059.0082-.0064.0078-3.9583 4.7499c-.098.1176-.2206.2122-.3592.277s-.2898.0983-.4428.098zm0 0h.0008l-.0005-.25-.0004.25zm4.8374-6.2822s.0003.0003.0011.0009z" fill="#fff" stroke="#fff" stroke-width=".5"/></svg>