<svg fill="none" height="126" viewBox="0 0 126 126" width="126" xmlns="http://www.w3.org/2000/svg" xmlns:xlink="http://www.w3.org/1999/xlink"><filter id="a" color-interpolation-filters="sRGB" filterUnits="userSpaceOnUse" height="126" width="126" x="0" y="0"><feFlood flood-opacity="0" result="BackgroundImageFix"/><feColorMatrix in="SourceAlpha" type="matrix" values="0 0 0 0 0 0 0 0 0 0 0 0 0 0 0 0 0 0 127 0"/><feOffset dy="14"/><feGaussianBlur stdDeviation="22"/><feColorMatrix type="matrix" values="0 0 0 0 0.0561111 0 0 0 0 0.0777333 0 0 0 0 0.133333 0 0 0 0.08 0"/><feBlend in2="BackgroundImageFix" mode="normal" result="effect1_dropShadow"/><feBlend in="SourceGraphic" in2="effect1_dropShadow" mode="normal" result="shape"/></filter><g filter="url(#a)"><circle fill="#757575" r="19" transform="matrix(-1 0 0 1 63 49)"/></g><path d="m67.667 48.3334h-7.9067l2.42-2.9067c.1132-.1362.1676-.3117.1514-.488-.0163-.1762-.1019-.3389-.238-.452-.1362-.1132-.3117-.1676-.488-.1514-.1763.0163-.3389.1019-.452.2381l-3.3334 4c-.0224.0318-.0425.0652-.06.1 0 .0333 0 .0533-.0466.0866-.0303.0765-.0461.1578-.0467.24.0006.0822.0164.1636.0467.24 0 .0334 0 .0534.0466.0867.0175.0347.0376.0682.06.1l3.3334 4c.0626.0752.1411.1358.2299.1772.0887.0415.1855.0629.2834.0628.1558.0003.3067-.054.4267-.1533.0675-.056.1233-.1247.1642-.2023s.0661-.1624.0741-.2498c.0081-.0873-.0012-.1753-.0272-.2591-.026-.0837-.0683-.1615-.1245-.2288l-2.42-2.9067h7.9067c.1768 0 .3464-.0702.4714-.1953.125-.125.1953-.2946.1953-.4714s-.0703-.3464-.1953-.4714-.2946-.1952-.4714-.1952z" fill="#e9e9e9" stroke="#e9e9e9"/></svg>