<svg fill="none" height="13" viewBox="0 0 15 13" width="15" xmlns="http://www.w3.org/2000/svg"><path d="m9.08305 12.2917c-.24323.0004-.47893-.0844-.66622-.2396h-.00005c-.10548-.0874-.19267-.1948-.25657-.316-.06391-.1212-.10328-.2538-.11586-.3903-.01258-.1364.00188-.274.04255-.4048.04066-.1308.10672-.2523.1944-.3576h.00006l2.53234-3.04168h-8.85569c-.27627 0-.54122-.10974-.73657-.30509s-.305098-.46031-.305098-.73657c0-.27627.109748-.54122.305098-.73657s.4603-.3051.73657-.3051h8.85569l-2.5324-3.04171-.00014-.00016c-.17675-.21266-.26179-.48683-.2364-.76219.02538-.27536.15912-.52936.37178-.706118s.48683-.261797.76219-.236409c.27526.025378.52917.159021.70592.371537.00007.00008.00013.00017.0002.00025l3.95815 4.74975.0064.00776.0059.00826c.0337.04781.0638.09803.0901.15026l.0221.04389.0155.01101.0271.06863c.0472.11943.0719.24657.0729.375v.00382c-.0009.11338-.0202.22575-.0573.33271-.0028.02811-.0097.0648-.026.10204-.0207.04727-.0501.08374-.08.11207-.0198.03504-.0413.06908-.0644.10197l-.0059.00825-.0064.00776-3.95831 4.74993c-.09794.1176-.22059.2122-.35922.277-.13849.0647-.28954.0982-.44242.098zm0 0h.00045l-.00049-.25-.00041.25zm4.83705-6.28219c0 .00001.0003.0003.0011.00087z" fill="#fff" stroke="#fff" stroke-width=".5"/></svg>