<svg xmlns="http://www.w3.org/2000/svg" width="24" height="24" viewBox="0 0 24 24"><defs><style>.a{fill:#87d3b9;}.b,.c,.d{fill:none;}.b,.c{stroke:#434756;stroke-linejoin:round;stroke-miterlimit:10;stroke-width:1.5px;}.c{stroke-linecap:round;}</style></defs><g transform="translate(-25 -16)"><rect class="a" width="4.759" height="6.193" rx="2.38" transform="translate(36.848 26.514)"/><g transform="translate(31 20)"><g transform="translate(-6 -4)"><g transform="translate(6 4)"><path class="b" d="M8.366,10.99a1.248,1.248,0,0,1-1.249,1.248H3.35A1.248,1.248,0,0,1,2.1,10.99v-.976H0L1.035,7.02V4.671S.974-.65,7.8.066c6.72.7,3.008,10.478,2.961,10.619s0,4.933,0,4.933H4.06V13.693" transform="translate(0 0)"/><path class="c" d="M.14,0V.459" transform="translate(4.569 6.321)"/></g></g></g><rect class="d" width="24" height="24" transform="translate(25 16)"/></g></svg>