<svg xmlns="http://www.w3.org/2000/svg" width="24" height="24" viewBox="0 0 24 24"><defs><style>.a{fill:#eb4639;}</style></defs><g transform="translate(6 17)"><path class="a" d="M9.258-.194A.724.724,0,0,1,8.252-.212a.724.724,0,0,1-.018-1.006L9.1-2.082H3.621A3.626,3.626,0,0,1,0-5.7v-4a.724.724,0,0,1,.724-.724.724.724,0,0,1,.724.724v4A2.172,2.172,0,0,0,3.621-3.53H8.992l-.758-.758A.724.724,0,0,1,8.027-5a.724.724,0,0,1,.522-.522.724.724,0,0,1,.709.208L11.3-3.265a.724.724,0,0,1,0,1.023Z" transform="translate(0 -0.09)"/></g></svg>