<svg xmlns="http://www.w3.org/2000/svg" width="24" height="24" viewBox="0 0 24 24"><defs><style>.a{fill:#87d3b9;}.b{fill:none;stroke:#434756;stroke-linecap:round;stroke-linejoin:round;stroke-miterlimit:10;stroke-width:1.5px;}</style></defs><g transform="translate(-25 -16)"><rect class="a" width="2.759" height="3.193" rx="1.38" transform="translate(36.848 29.514)"/><g transform="translate(25 16)"><g transform="translate(5 5)"><path class="b" d="M7.762,0A6.995,6.995,0,0,0,1.911,10.829L0,14.911,4.174,13A7,7,0,1,0,7.762,0Z" transform="translate(0 0)"/><path class="b" d="M0,1.711a1.711,1.711,0,1,1,3.422,0A1.786,1.786,0,0,1,2.337,3.3a.93.93,0,0,0-.556.755v.848" transform="translate(5.828 3.912)"/><path class="b" d="M.134.226h0" transform="translate(7.523 10.482)"/></g></g></g></svg>