<svg xmlns="http://www.w3.org/2000/svg" width="24" height="24" viewBox="0 0 24 24"><defs><style>.a{fill:#87d3b9;}.b{fill:none;stroke:#434756;stroke-miterlimit:10;stroke-width:1.5px;}</style></defs><g transform="translate(-25 -16)"><rect class="a" width="4.759" height="6.193" rx="2.38" transform="translate(40.848 26.514)"/><g transform="translate(25 16)"><g transform="translate(5 4)"><path class="b" d="M4.417,9.3V0H0V9.3a2.209,2.209,0,1,0,4.417,0Z" transform="translate(10.559 3.844)"/><path class="b" d="M10.56,13.146V0H0V13.146a2.209,2.209,0,0,0,2.209,2.209H12.768A2.209,2.209,0,0,1,10.56,13.146Z" transform="translate(0 0)"/><path class="b" d="M0,.156H4.908" transform="translate(2.722 3.746)"/><path class="b" d="M0,.156H4.908" transform="translate(2.722 6.609)"/><path class="b" d="M0,.156H2.536" transform="translate(5.094 9.473)"/></g></g></g></svg>