<svg fill="none" height="28" viewBox="0 0 76 28" width="76" xmlns="http://www.w3.org/2000/svg"><rect fill="#ff6d38" height="28" rx="5" width="76"/><path d="m11.4833 20h3.69c2.445 0 4.23-1.05 4.23-3.24 0-1.5-.915-2.355-2.175-2.625v-.075c.99-.33 1.575-1.335 1.575-2.385 0-1.995-1.635-2.715-3.9-2.715h-3.42zm1.74-6.435v-3.255h1.53c1.56 0 2.34.435 2.34 1.59 0 1.035-.705 1.665-2.385 1.665zm0 5.07v-3.75h1.755c1.755 0 2.715.54 2.715 1.785 0 1.35-.99 1.965-2.715 1.965zm8.2649 1.365h6.69v-1.47h-4.95v-3.57h4.05v-1.47h-4.05v-3.075h4.785v-1.455h-6.525zm12.1441.195c2.415 0 3.885-1.44 3.885-3.21 0-1.62-.945-2.43-2.25-2.985l-1.515-.645c-.9-.36-1.785-.72-1.785-1.665 0-.885.735-1.425 1.86-1.425.975 0 1.74.375 2.43.99l.915-1.11c-.84-.855-2.055-1.395-3.345-1.395-2.1 0-3.63 1.305-3.63 3.045 0 1.605 1.185 2.445 2.25 2.895l1.53.66c1.02.45 1.77.765 1.77 1.77 0 .93-.75 1.56-2.085 1.56-1.065 0-2.145-.51-2.94-1.305l-1.02 1.2c1.005 1.02 2.415 1.62 3.93 1.62zm7.8891-.195h1.74v-9.585h3.255v-1.455h-8.235v1.455h3.24z" fill="#fff"/><path clip-rule="evenodd" d="m55.4309 16.5679-3.083-1.045c-.1372-.0467-.2563-.1351-.3407-.253-.0843-.1178-.1297-.2591-.1297-.404s.0454-.2862.1297-.404c.0844-.1179.2035-.2063.3407-.253l3.083-1.044c.1011-.0342.1929-.0912.2683-.1667.0755-.0754.1325-.1672.1667-.2683l1.044-3.084c.0465-.13755.1349-.25706.2529-.34171.1179-.08466.2594-.13019.4046-.13019s.2867.04553.4047.13019c.1179.08465.2063.20416.2528.34171l1.044 3.084c.07.205.23.366.435.435l3.083 1.044c.1372.0467.2563.1351.3407.253.0844.1178.1297.2591.1297.404s-.0453.2862-.1297.404c-.0844.1179-.2035.2063-.3407.253l-3.083 1.045c-.101.0341-.1927.091-.2681.1662-.0755.0753-.1326.1669-.1669.2678l-1.044 3.084c-.0465.1375-.1349.2571-.2528.3417-.118.0847-.2595.1302-.4047.1302s-.2867-.0455-.4046-.1302c-.118-.0846-.2064-.2042-.2529-.3417l-1.044-3.084c-.0343-.1009-.0914-.1925-.1668-.2678-.0755-.0752-.1672-.1321-.2682-.1662zm6.238-6.356-1.31-.443c-.0659-.02198-.1232-.06413-.1638-.12048s-.0625-.12406-.0625-.19352.0219-.13717.0625-.19352c.0406-.05636.0979-.09851.1638-.12048l1.31-.443c.0484-.01629.0923-.04354.1284-.07963.0361-.03608.0633-.08001.0796-.12837l.443-1.31c.022-.0659.0641-.12321.1205-.16382.0563-.04061.124-.06247.1935-.06247s.1372.02186.1935.06247c.0564.04061.0985.09792.1205.16382l.443 1.31c.033.098.11.175.208.208l1.31.443c.0659.02197.1232.06412.1638.12048.0406.05635.0625.12406.0625.19352s-.0219.13717-.0625.19352-.0979.0985-.1638.12048l-1.31.443c-.0483.0163-.0923.0435-.1284.0796-.036.0361-.0633.08-.0796.1284l-.443 1.31c-.022.0659-.0641.1232-.1205.1638-.0563.0406-.124.0625-.1935.0625s-.1372-.0219-.1935-.0625c-.0564-.0406-.0985-.0979-.1205-.1638l-.443-1.31c-.0163-.0484-.0435-.0923-.0796-.1284s-.08-.0633-.1284-.0796zm-9.909 9.723-.688-.233c-.0602-.0204-.1126-.0591-.1497-.1108-.037-.0516-.057-.1136-.057-.1772s.02-.1256.057-.1772c.0371-.0517.0895-.0904.1497-.1108l.688-.233c.0504-.0171.0962-.0456.1338-.0832s.0661-.0834.0832-.1338l.233-.688c.0204-.0602.0591-.1126.1108-.1497.0516-.037.1136-.057.1772-.057s.1256.02.1773.057c.0516.0371.0904.0895.1107.1497l.233.688c.0172.0505.0458.0963.0837.134.0378.0376.0837.066.1343.083l.688.233c.0603.0204.1126.0591.1497.1108.037.0516.057.1136.057.1772s-.02.1256-.057.1772c-.0371.0517-.0894.0904-.1497.1108l-.688.233c-.0506.017-.0965.0454-.1343.083-.0379.0377-.0665.0835-.0837.134l-.233.688c-.0203.0602-.0591.1126-.1107.1497-.0517.037-.1137.057-.1773.057s-.1256-.02-.1772-.057c-.0517-.0371-.0904-.0895-.1108-.1497l-.233-.688c-.0171-.0504-.0456-.0962-.0832-.1338s-.0834-.0661-.1338-.0832z" fill="#ffe870" fill-rule="evenodd"/></svg>