<svg width="15" height="14" viewBox="0 0 15 14" fill="none" xmlns="http://www.w3.org/2000/svg">
<path d="M1.9585 6.20851H11.3477L8.47391 2.75684C8.33954 2.59517 8.27489 2.38674 8.29419 2.1774C8.31349 1.96807 8.41516 1.77497 8.57683 1.64059C8.7385 1.50622 8.94693 1.44157 9.15627 1.46087C9.36561 1.48017 9.5587 1.58184 9.69308 1.74351L13.6514 6.49351C13.678 6.53129 13.7019 6.57098 13.7227 6.61226C13.7227 6.65185 13.7227 6.6756 13.7781 6.71518C13.814 6.80595 13.8328 6.90257 13.8335 7.00018C13.8328 7.09778 13.814 7.19441 13.7781 7.28518C13.7781 7.32476 13.7781 7.34851 13.7227 7.3881C13.7019 7.42937 13.678 7.46906 13.6514 7.50685L9.69308 12.2568C9.61865 12.3462 9.52543 12.4181 9.42008 12.4673C9.31472 12.5166 9.1998 12.542 9.0835 12.5418C8.89852 12.5422 8.71926 12.4778 8.57683 12.3598C8.49667 12.2933 8.4304 12.2117 8.38183 12.1196C8.33326 12.0275 8.30334 11.9267 8.29378 11.823C8.28422 11.7193 8.29521 11.6147 8.32612 11.5153C8.35703 11.4159 8.40725 11.3235 8.47391 11.2435L11.3477 7.79185H1.9585C1.74853 7.79185 1.54717 7.70844 1.3987 7.55997C1.25024 7.41151 1.16683 7.21014 1.16683 7.00018C1.16683 6.79022 1.25024 6.58885 1.3987 6.44039C1.54717 6.29192 1.74853 6.20851 1.9585 6.20851Z" fill="white" stroke="white"/>
</svg>
