<svg fill="none" height="50" viewBox="0 0 50 50" width="50" xmlns="http://www.w3.org/2000/svg"><circle cx="25" cy="25" fill="#c5331e" r="25"/><path d="m25.0625 22.8125v4.6875h6.375c-.9375 2.5312-3.375 4.2187-6.1875 4.2187-3.6562 0-6.5625-2.9062-6.5625-6.5625 0-3.6562 2.9063-6.5625 6.5625-6.5625 1.4062 0 2.7188.4688 3.8438 1.2188l.375.2813 2.8124-3.6563-.3749-.2813c-1.9688-1.4062-4.2188-2.1562-6.6563-2.1562-6.1875 0-11.25 5.0625-11.25 11.25s5.0625 11.25 11.25 11.25 11.25-5.0625 11.25-11.25v-2.3438h-11.4375z" fill="#fff"/></svg>