<svg fill="none" height="50" viewBox="0 0 50 50" width="50" xmlns="http://www.w3.org/2000/svg"><circle cx="25" cy="25" fill="#00af74" r="25"/><path d="m18.6274 24.5098h11.6274l-3.5588-4.2745c-.1664-.2002-.2465-.4583-.2226-.7176.0239-.2592.1498-.4984.35-.6648.2003-.1664.4584-.2464.7176-.2225.2593.0239.4984.1498.6648.35l4.902 5.8823c.0329.0468.0624.096.0882.1471 0 .049 0 .0784.0686.1275.0445.1124.0677.232.0687.3529-.001.1209-.0242.2405-.0687.3529 0 .0491 0 .0785-.0686.1275-.0258.0511-.0553.1003-.0882.147l-4.902 5.8824c-.0922.1107-.2076.1997-.3381.2607s-.2728.0925-.4168.0922c-.2291.0005-.4511-.0793-.6275-.2254-.0992-.0824-.1813-.1834-.2414-.2975-.0602-.1141-.0972-.2389-.1091-.3673-.0118-.1284.0018-.2579.0401-.381.0383-.1232.1004-.2375.183-.3366l3.5588-4.2745h-11.6274c-.26 0-.5094-.1033-.6933-.2872-.1838-.1838-.2871-.4332-.2871-.6932s.1033-.5094.2871-.6932c.1839-.1839.4333-.2872.6933-.2872z" fill="#fff" stroke="#fff" stroke-width="2"/></svg>