<svg fill="none" height="50" viewBox="0 0 50 50" width="50" xmlns="http://www.w3.org/2000/svg"><circle cx="25" cy="25" fill="#4e6297" r="25"/><path d="m36.5 17.7306c0-1.9819-1.7487-3.7306-3.7306-3.7306h-15.0388c-1.9819 0-3.7306 1.7487-3.7306 3.7306v15.0388c0 1.9819 1.7487 3.7306 3.7306 3.7306h7.5777v-8.5104h-2.7979v-3.7305h2.7979v-1.5156c0-2.5647 1.8653-4.7798 4.1969-4.7798h3.0311v3.7306h-3.0311c-.3498 0-.6995.3497-.6995 1.0492v1.5156h3.7306v3.7305h-3.7306v8.5104h3.9637c1.9819 0 3.7306-1.7487 3.7306-3.7306z" fill="#fff"/></svg>