<svg fill="none" height="50" viewBox="0 0 50 50" width="50" xmlns="http://www.w3.org/2000/svg"><circle cx="25" cy="25" fill="#fee500" r="25"/><path clip-rule="evenodd" d="m14 23.6126c0-5.3092 5.0365-9.6126 11.25-9.6126s11.25 4.3034 11.25 9.6126c0 5.3091-5.0365 9.6125-11.25 9.6125-.6665.0018-1.3324-.0472-1.9925-.1465-.028.0211-.0617.0466-.1006.0761-.8654.6555-4.3195 3.2718-4.6591 3.3234-.0434.017-.0896.0243-.1358.0212-.0461-.003-.0912-.0162-.1324-.0387-.1234-.0786-.1006-.2849-.1006-.2849.0363-.2718.9478-3.6825 1.1372-4.3912l.0072-.0271c-3.1673-1.6974-5.2734-4.7125-5.2734-8.1448z" fill="#131313" fill-rule="evenodd"/></svg>