<svg fill="none" height="25" viewBox="0 0 25 25" width="25" xmlns="http://www.w3.org/2000/svg"><path clip-rule="evenodd" d="m8.39954 16.2671-4.6245-1.5675c-.20579-.07-.38449-.2027-.51104-.3794-.12655-.1768-.19459-.3887-.19459-.6061 0-.2173.06804-.4293.19459-.606s.30525-.3094.51104-.3795l4.6245-1.566c.1516-.0513.28933-.1368.4025-.25.11316-.1131.19871-.2509.25-.4025l1.56596-4.62597c.0697-.20632.2024-.38559.3793-.51257s.3892-.19527.607-.19527.4301.06829.607.19527.3095.30625.3792.51257l1.566 4.62597c.105.3075.345.549.6525.6525l4.6245 1.566c.2058.0701.3845.2028.5111.3795.1265.1767.1946.3887.1946.606 0 .2174-.0681.4293-.1946.6061-.1266.1767-.3053.3094-.5111.3794l-4.6245 1.5675c-.1514.0512-.289.1365-.4022.2494-.1131.1129-.1988.2503-.2503.4016l-1.566 4.626c-.0697.2064-.2023.3856-.3792.5126s-.3892.1953-.607.1953-.4301-.0683-.607-.1953-.3096-.3062-.3793-.5126l-1.56596-4.626c-.05148-.1513-.13712-.2887-.25028-.4016-.11315-.1129-.25078-.1982-.40222-.2494zm9.35696-9.53397-1.965-.6645c-.0988-.03296-.1848-.09618-.2457-.18072-.0609-.08453-.0937-.18608-.0937-.29028 0-.10419.0328-.20575.0937-.29028s.1469-.14776.2457-.18072l1.965-.6645c.0726-.02444.1385-.06531.1926-.11944.0541-.05412.095-.12002.1194-.19256l.6645-1.965c.033-.09884.0962-.18481.1808-.24573.0845-.06092.186-.0937.2902-.0937s.2058.03278.2903.0937c.0846.06092.1478.14689.1807.24573l.6645 1.965c.0495.147.165.2625.312.312l1.965.6645c.0989.03296.1849.09619.2458.18072s.0937.18609.0937.29028c0 .1042-.0328.20575-.0937.29028-.0609.08454-.1469.14776-.2458.18072l-1.965.6645c-.0725.02444-.1384.06532-.1925.11944s-.095.12003-.1195.19256l-.6645 1.965c-.0329.09885-.0961.18481-.1807.24573-.0845.06092-.1861.0937-.2903.0937s-.2057-.03278-.2902-.0937c-.0846-.06092-.1478-.14688-.1808-.24573l-.6645-1.965c-.0244-.07253-.0653-.13844-.1194-.19256s-.12-.095-.1926-.11944zm-14.86346 14.58447-1.032-.3495c-.09037-.0305-.16888-.0886-.22449-.1661s-.08552-.1705-.08552-.2659.02991-.1883.08552-.2658.13412-.1356.22449-.1662l1.032-.3495c.07558-.0256.14425-.0683.20069-.1248.05644-.0564.09914-.1251.12481-.2007l.3495-1.032c.03054-.0903.08864-.1688.16614-.2245.07749-.0556.17047-.0855.26586-.0855.09538 0 .18837.0299.26586.0855.0775.0557.1356.1342.16614.2245l.3495 1.032c.02582.0758.06875.1445.12546.201.05672.0564.12568.0991.20154.1245l1.032.3495c.09036.0306.16888.0887.22449.1662s.08552.1704.08552.2658-.02991.1884-.08552.2659-.13413.1356-.22449.1661l-1.032.3495c-.07586.0255-.14482.0681-.20154.1246-.05671.0564-.09964.1252-.12546.2009l-.3495 1.032c-.03054.0904-.08864.1689-.16614.2245-.07749.0556-.17048.0855-.26586.0855-.09539 0-.18837-.0299-.26586-.0855-.0775-.0556-.1356-.1341-.16614-.2245l-.3495-1.032c-.02567-.0756-.06837-.1442-.12481-.2007-.05644-.0564-.12511-.0991-.20069-.1248z" fill="#bababa" fill-rule="evenodd"/></svg>