<svg fill="none" height="40" viewBox="0 0 41 40" width="41" xmlns="http://www.w3.org/2000/svg"><path d="m35.7833 3.43337c-1.1947-.20577-2.4044-.3117-3.6167-.31666-4.1361-.00339-8.1859 1.18262-11.6667 3.41666-3.4897-2.20471-7.5389-3.36161-11.66663-3.33333-1.21226.00497-2.42199.11089-3.61667.31667-.39132.06746-.74569.27243-.99931.57798-.25361.30556-.38979.69163-.38402 1.08868v20.00003c-.00357.2449.04688.4875.14775.7107s.24969.4214.43587.5805.40514.2753.64131.3402c.23616.0649.48372.0769.72507.0352 2.38837-.4135 4.83533-.3449 7.19673.2018 2.3615.5467 4.5896 1.5605 6.5533 2.9816l.2.1166h.1833c.1848.0771.3831.1167.5833.1167.2003 0 .3985-.0396.5834-.1167h.1833l.2-.1166c1.9499-1.4529 4.1717-2.4995 6.5336-3.0778s4.8158-.6765 7.2164-.2889c.2413.0417.4889.0296.7251-.0353.2361-.0648.4551-.181.6413-.3401s.335-.3573.4359-.5805c.1008-.2232.1513-.4659.1477-.7108v-19.99996c-.0173-.37974-.164-.74215-.4156-1.0271-.2516-.28496-.5931-.47534-.9677-.53957zm-16.95 22.15003c-3.0836-1.6222-6.5158-2.4688-10.00003-2.4667-.55 0-1.1 0-1.66667 0v-16.66666c.5551-.03199 1.11158-.03199 1.66667 0 3.55563-.00393 7.03373 1.03949 10.00003 3zm15-2.4c-.5667 0-1.1167 0-1.6667 0-3.4842-.0022-6.9165.8445-10 2.4666v-16.19996c2.9663-1.96051 6.4444-3.00393 10-3 .5551-.03199 1.1116-.03199 1.6667 0zm1.95 6.9166c-1.1947-.2057-2.4044-.3117-3.6167-.3166-4.1361-.0034-8.1859 1.1826-11.6667 3.4166-3.4808-2.234-7.5306-3.42-11.66663-3.4166-1.21226.0049-2.42199.1109-3.61667.3166-.21695.0345-.42496.1115-.61206.2266s-.3496.266-.47816.4441-.22063.3799-.27094.5938c-.0503.2138-.05783.4355-.02217.6522.0847.4328.33748.8144.70298 1.0612s.81392.3387 1.24702.2555c2.38837-.4135 4.83533-.3449 7.19673.2018 2.3615.5467 4.5896 1.5604 6.5533 2.9815.2822.201.6201.309.9666.309s.6844-.108.9667-.309c1.9636-1.4211 4.1918-2.4348 6.5532-2.9815 2.3615-.5467 4.8084-.6153 7.1968-.2018.4331.0832.8815-.0087 1.247-.2555s.6183-.6284.703-1.0612c.0357-.2167.0281-.4384-.0222-.6522-.0503-.2139-.1424-.4157-.2709-.5938-.1286-.1781-.2911-.329-.4782-.4441s-.3951-.1921-.612-.2266z" fill="#11a876"/></svg>