<svg fill="none" height="40" viewBox="0 0 40 40" width="40" xmlns="http://www.w3.org/2000/svg"><path d="m18.3333 4.99996c-3.0942 0-6.0616 1.22916-8.2495 3.41709-2.18797 2.18795-3.41713 5.15535-3.41713 8.24955 0 .4421.17559.866.48815 1.1785.31256.3126.73649.4882 1.17851.4882.44203 0 .86595-.1756 1.17851-.4882.31257-.3125.48816-.7364.48816-1.1785 0-2.2101.878-4.3297 2.4408-5.8925 1.5628-1.56283 3.6824-2.44081 5.8925-2.44081 2.2102 0 4.3298.87798 5.8926 2.44081 1.5628 1.5628 2.4408 3.6824 2.4408 5.8925-.0053 1.5078-.4138 2.9867-1.1834 4.2834l-5.9333 12.3833c-.2923.5062-.7125.9267-1.2186 1.2192-.5061.2926-1.0802.4469-1.6647.4475-.8841 0-1.7319-.3512-2.3571-.9764-.6251-.6251-.9763-1.4729-.9763-2.357 0-.442-.1756-.8659-.4881-1.1785-.3126-.3125-.7365-.4881-1.1785-.4881-.4421 0-.866.1756-1.1785.4881-.3126.3126-.4882.7365-.4882 1.1785 0 1.7681.7024 3.4638 1.9526 4.7141 1.2503 1.2502 2.946 1.9526 4.7141 1.9526 1.1919-.0011 2.3618-.3217 3.3877-.9285 1.026-.6067 1.8705-1.4775 2.4456-2.5215l5.9333-12.3833c1.0304-1.7711 1.5711-3.7844 1.5667-5.8334 0-3.0942-1.2292-6.0616-3.4171-8.24955-2.1879-2.18793-5.1554-3.41709-8.2496-3.41709zm-11.66663 20.00004c-.32964 0-.65187.0977-.92595.2808-.27408.1832-.48771.4435-.61385.748-.12615.3046-.15915.6397-.09484.963.0643.3233.22304.6202.45613.8533.23308.2331.53006.3919.85336.4562s.65841.0313.96295-.0949c.30455-.1261.56484-.3397.74798-.6138s.28088-.5963.28088-.926c0-.442-.17559-.8659-.48815-1.1785-.31256-.3125-.73648-.4881-1.17851-.4881zm22.65003-23.00004c-.1751-.13132-.3744-.22687-.5864-.28119s-.4327-.06635-.6493-.03539c-.2167.03095-.4252.10428-.6135.21579s-.3528.25903-.4842.43412c-.1313.1751-.2268.37435-.2812.58637-.0543.21202-.0663.43266-.0354.64933.031.21667.1043.42513.2158.61346.1116.18833.2591.35285.4342.48418 1.866 1.39546 3.3812 3.20645 4.4256 5.28938 1.0443 2.08289 1.5891 4.38049 1.591 6.71059 0 .4421.1756.866.4882 1.1785.3125.3126.7365.4882 1.1785.4882s.8659-.1756 1.1785-.4882c.3126-.3125.4882-.7364.4882-1.1785-.0097-2.8462-.6783-5.6515-1.9535-8.19604-1.2752-2.54457-3.1223-4.75929-5.3965-6.4706zm-10.9834 13.00004c.4421 0 .866.1756 1.1785.4881.3126.3126.4882.7365.4882 1.1785 0 .4421.1756.866.4882 1.1785.3125.3126.7364.4882 1.1785.4882.442 0 .8659-.1756 1.1785-.4882.3125-.3125.4881-.7364.4881-1.1785 0-1.3261-.5268-2.5978-1.4644-3.5355-.9377-.9377-2.2095-1.4645-3.5356-1.4645-1.326 0-2.5978.5268-3.5355 1.4645s-1.4645 2.2094-1.4645 3.5355c-.0022.9972.2938 1.9723.85 2.8.2297.326.4922.6276.7834.9l.3333.3667c.1827.2739.2802.5957.2802.925 0 .3292-.0975.6511-.2802.925-.2514.3626-.3487.8102-.2705 1.2445.0781.4342.3252.8198.6872 1.0722.2786.1945.6101.2992.95.3.2687-.0005.5333-.0659.7712-.1907.238-.1248.4423-.3052.5954-.526.5697-.832.8746-1.8167.8746-2.825s-.3049-1.9931-.8746-2.825c-.1752-.2487-.3703-.4828-.5833-.7l-.2333-.2333c-.0976-.092-.1868-.1924-.2667-.3-.1854-.2759-.2841-.601-.2833-.9334 0-.442.1756-.8659.4881-1.1785.3126-.3125.7365-.4881 1.1785-.4881zm-6.6666 10c.3296 0 .6518-.0978.9259-.2809.2741-.1832.4877-.4435.6139-.748.1261-.3045.1591-.6397.0948-.963s-.223-.6202-.4561-.8533-.5301-.3918-.8534-.4562c-.3233-.0643-.6584-.0313-.9629.0949-.3046.1261-.5649.3398-.748.6138-.1832.2741-.2809.5964-.2809.926 0 .442.1756.8659.4882 1.1785.3125.3126.7364.4882 1.1785.4882z" fill="#11a876"/></svg>