<svg fill="none" height="40" viewBox="0 0 41 40" width="41" xmlns="http://www.w3.org/2000/svg"><path d="m32.1665 13.3333h-1.6667v-5.00005c0-1.32608-.5268-2.59785-1.4645-3.53553-.9376-.93768-2.2094-1.46447-3.5355-1.46447h-16.66667c-1.32608 0-2.59785.52679-3.53553 1.46447-.93769.93768-1.46447 2.20945-1.46447 3.53553v20.00005c.00164.329.10065.6502.28453.9231.18389.2728.44444.4852.7488.6102.1978.0933.41471.139.63334.1333.21934.0013.43678-.0408.63984-.1237s.38776-.2051.54349-.3596l4.68337-4.7h2.4666v2.4c0 1.3261.5268 2.5978 1.4645 3.5355s2.2094 1.4645 3.5355 1.4645h11.5334l3.95 3.9667c.1557.1544.3404.2766.5435.3596.203.0829.4205.125.6398.1237.2186.0056.4355-.04.6333-.1333.3044-.1251.5649-.3374.7488-.6103.1839-.2728.2829-.594.2846-.9231v-16.6666c0-1.3261-.5268-2.5979-1.4645-3.5356s-2.2095-1.4644-3.5355-1.4644zm-18.3334 5v3.15h-3.15c-.2193-.0013-.4368.0407-.6398.1237-.20308.0829-.38777.2051-.5435.3596l-2.33334 2.35v-15.98335c0-.44203.1756-.86595.48816-1.17851s.73648-.48815 1.17851-.48815h16.66667c.442 0 .8659.17559 1.1785.48815s.4882.73648.4882 1.17851v5.00005h-8.3334c-1.3261 0-2.5978.5267-3.5355 1.4644s-1.4645 2.2095-1.4645 3.5356zm20 12.65-1.6666-1.6667c-.1544-.1575-.3385-.2828-.5416-.3686s-.4213-.1305-.6418-.1314h-12.15c-.442 0-.8659-.1756-1.1785-.4882-.3125-.3125-.4881-.7365-.4881-1.1785v-8.8166c0-.4421.1756-.866.4881-1.1786.3126-.3125.7365-.4881 1.1785-.4881h13.3334c.442 0 .8659.1756 1.1785.4881.3125.3126.4881.7365.4881 1.1786z" fill="#11a876"/></svg>