<svg fill="none" height="162" viewBox="0 0 162 162" width="162" xmlns="http://www.w3.org/2000/svg" xmlns:xlink="http://www.w3.org/1999/xlink"><mask id="a" height="160" maskUnits="userSpaceOnUse" width="160" x="1" y="1"><path clip-rule="evenodd" d="m81 161c44.183 0 80-35.817 80-80 0-44.1828-35.817-80-80-80-44.1828 0-80 35.8172-80 80 0 44.183 35.8172 80 80 80z" fill="#fff" fill-rule="evenodd"/></mask><path d="m81 161.25c44.321 0 80.25-35.929 80.25-80.25 0-44.3209-35.929-80.25-80.25-80.25-44.3209 0-80.25 35.9291-80.25 80.25 0 44.321 35.9291 80.25 80.25 80.25z" fill="#fff" stroke="#e9e9e9" stroke-width=".5"/><g mask="url(#a)"><path clip-rule="evenodd" d="m139.206 142.438c-4.716-6.823-11.67-11.782-19.656-14.019l-18.55-5.197v-13.332c7.842-5.891 12.991-15.1609 13.308-25.6467 1.096.4831 2.306.7569 3.581.7569 4.909 0 8.889-3.9796 8.889-8.8889 0-4.9094-3.98-8.8889-8.889-8.8889-1.265 0-2.466.268-3.555.7444v-2.5222c0-18.4098-14.9244-33.3333-33.3337-33.3333h-.0005c-18.4093 0-33.3329 14.9235-33.3329 33.3333v2.5222c-1.0897-.4764-2.2906-.7444-3.5555-.7444-4.9093 0-8.8889 3.9795-8.8889 8.8889 0 4.9093 3.9796 8.8889 8.8889 8.8889 1.2751 0 2.4849-.2734 3.5813-.7569.316 10.4858 5.4658 19.7557 13.3071 25.6467v13.332l-18.5493 5.197c-7.9867 2.237-14.94 7.196-19.6565 14.019l-12.90484 18.669v13.227h142.22184v-13.227z" fill="#e9ada1" fill-rule="evenodd"/><path clip-rule="evenodd" d="m80.9998 116.556c-4.1102 0-8.0444-.749-11.68-2.109 5.1707 3.303 11.3111 5.22 17.9022 5.22 4.9156 0 9.5774-1.073 13.778-2.983v-6.795c-5.5713 4.185-12.4957 6.667-20.0002 6.667z" fill="#db8b79" fill-rule="evenodd"/><path d="m48.8263 77.4084c.1133-.4129.1742-.848.1742-1.2969 0-2.7-2.1889-4.8889-4.8889-4.8889-.6751 0-1.3182.1369-1.9031.384" stroke="#00004d" stroke-linecap="round" stroke-linejoin="round" stroke-width="2"/><path d="m113.174 77.4084c-.113-.4129-.174-.848-.174-1.2969 0-2.7 2.189-4.8889 4.889-4.8889.675 0 1.318.1369 1.903.384" stroke="#00004d" stroke-linecap="round" stroke-linejoin="round" stroke-width="2"/><g clip-rule="evenodd" fill-rule="evenodd"><path d="m69.8887 105.666c0-6.136 4.9746-11.1107 11.1111-11.1107 6.1364 0 11.1111 4.9747 11.1111 11.1107z" fill="#ae1328"/><path d="m81 94.5553c-3.2178 0-6.1147 1.3698-8.144 3.5556h16.288c-2.0294-2.1858-4.9263-3.5556-8.144-3.5556z" fill="#fff"/><path d="m80.9998 101.222c-3.288 0-6.1525 1.79-7.6902 4.444h15.3804c-1.5378-2.654-4.4022-4.444-7.6902-4.444z" fill="#fb344f"/></g><path d="m80.9999 73.8889 4.4445 15.1111-6.2222.8889" stroke="#00004d" stroke-linecap="round" stroke-linejoin="round" stroke-width="2"/><path clip-rule="evenodd" d="m50.4755 69.9127c-.7969-.8177-1.748-1.4822-2.8089-1.9457-1.0893-.4765-2.2902-.7449-3.5555-.7449-.3 0-.5965.016-.8889.0453v-1.8231c0-20.864 16.9137-37.7778 37.7777-37.7778 20.8641 0 37.7781 16.9138 37.7781 37.7778v1.8231c-.293-.0293-.589-.0453-.889-.0453-1.266 0-2.466.2684-3.556.7449-1.15.5031-2.169 1.2457-3.004 2.1604-15.7935-1.2249-30.0442-7.948-40.8357-18.2649-4.6254 7.9027-11.6271 14.2365-20.0178 18.0502zm63.8315 14.3303c-.316 10.4862-5.466 19.756-13.307 25.646v13.333l17.778 4.981v-43.2476c-.293.0289-.589.0445-.889.0445-1.276 0-2.485-.2734-3.582-.7569zm-53.3071 25.646c-7.8417-5.89-12.9911-15.1598-13.3075-25.646-1.0965.4836-2.3062.7569-3.5813.7569-.3 0-.5965-.0155-.8889-.0449v43.248l17.7777-4.981z" fill="#00004d" fill-rule="evenodd"/><path clip-rule="evenodd" d="m139.206 142.438c-4.716-6.823-11.67-11.782-19.657-14.019l-11.857-3.322-4.914-8.097h-1.778v3.329l-20.0002 18.449h-.0005l-19.9995-18.449v-3.329h-1.7778l-4.9138 8.097-11.8578 3.322c-7.9871 2.237-14.94 7.196-19.6568 14.019l-12.90493 18.668v13.228h142.22233v-13.227z" fill="#9bc5ff" fill-rule="evenodd"/><path d="m54.3081 125.097 11.692 24.236 15-10.555" stroke="#00004d" stroke-linecap="round" stroke-linejoin="round" stroke-width="2"/><path d="m81 138.778 15 10.555 7.799-16.166" stroke="#00004d" stroke-linecap="round" stroke-linejoin="round" stroke-width="2"/><path clip-rule="evenodd" d="m67.5856 80.9187c2.3062-.8396 3.4956-3.3902 2.6565-5.6965l-8.3529 3.04c.8391 2.3067 3.3902 3.496 5.6964 2.6565z" fill="#00004d" fill-rule="evenodd"/><path clip-rule="evenodd" d="m94.1478 80.9187c-2.3062-.8396-3.496-3.3902-2.6564-5.6965l8.3529 3.04c-.8396 2.3067-3.3903 3.496-5.6965 2.6565z" fill="#00004d" fill-rule="evenodd"/></g></svg>