<svg fill="none" height="162" viewBox="0 0 162 162" width="162" xmlns="http://www.w3.org/2000/svg" xmlns:xlink="http://www.w3.org/1999/xlink"><mask id="a" height="160" maskUnits="userSpaceOnUse" width="160" x="1" y="1"><path clip-rule="evenodd" d="m81 161c44.183 0 80-35.817 80-80 0-44.1828-35.817-80-80-80-44.1828 0-80 35.8172-80 80 0 44.183 35.8172 80 80 80z" fill="#fff" fill-rule="evenodd"/></mask><path clip-rule="evenodd" d="m81 161c44.183 0 80-35.817 80-80 0-44.1828-35.817-80-80-80-44.1828 0-80 35.8172-80 80 0 44.183 35.8172 80 80 80z" fill="#fff" fill-rule="evenodd" stroke="#e9e9e9" stroke-width=".5"/><g mask="url(#a)"><path clip-rule="evenodd" d="m139.206 142.438c-4.716-6.823-11.67-11.782-19.656-14.019l-18.55-5.197v-13.333c7.842-5.89 12.991-15.16 13.308-25.6457 1.096.4831 2.306.7569 3.581.7569 4.909 0 8.889-3.9796 8.889-8.8889 0-4.9094-3.98-8.8889-8.889-8.8889-1.265 0-2.466.268-3.555.7444v-2.5222c0-18.4098-14.9244-33.3333-33.3337-33.3333h-.0005c-18.4093 0-33.3329 14.9235-33.3329 33.3333v2.5222c-1.0897-.4764-2.2906-.7444-3.5555-.7444-4.9093 0-8.8889 3.9795-8.8889 8.8889 0 4.9093 3.9796 8.8889 8.8889 8.8889 1.2751 0 2.4849-.2734 3.5813-.7569.316 10.4857 5.4658 19.7557 13.3071 25.6457v13.333l-18.5493 5.197c-7.9867 2.237-14.94 7.196-19.6565 14.019l-12.90484 18.669v13.226h142.22184v-13.226z" fill="#ffcf83" fill-rule="evenodd"/><path clip-rule="evenodd" d="m80.9998 116.556c-4.1102 0-8.0444-.749-11.68-2.109 5.1707 3.303 11.3111 5.22 17.9022 5.22 4.9156 0 9.5774-1.073 13.778-2.983v-6.795c-5.5713 4.185-12.4957 6.667-20.0002 6.667z" fill="#f7a74f" fill-rule="evenodd"/><path d="m48.8263 77.4084c.1133-.4129.1742-.848.1742-1.2969 0-2.7-2.1889-4.8889-4.8889-4.8889-.6751 0-1.3182.1369-1.9031.384" stroke="#00004d" stroke-linecap="round" stroke-linejoin="round" stroke-width="2"/><path d="m113.174 77.4084c-.113-.4129-.174-.848-.174-1.2969 0-2.7 2.189-4.8889 4.889-4.8889.675 0 1.318.1369 1.903.384" stroke="#00004d" stroke-linecap="round" stroke-linejoin="round" stroke-width="2"/><path clip-rule="evenodd" d="m92.1109 94.5552c0 6.1368-4.9747 11.1108-11.1111 11.1108-6.1365 0-11.1111-4.974-11.1111-11.1108z" fill="#ae1328" fill-rule="evenodd"/><path clip-rule="evenodd" d="m87.2182 103.764c-1.6031-1.57-3.7965-2.542-6.2182-2.542-2.4218 0-4.6152.972-6.2183 2.542 1.7747 1.201 3.9143 1.902 6.2183 1.902 2.3035 0 4.444-.701 6.2182-1.902z" fill="#fb344f" fill-rule="evenodd"/><path clip-rule="evenodd" d="m87.6664 98.1108h-13.3333c-1.2276 0-2.2223-.9947-2.2223-2.2222v-1.3334h17.7778v1.3334c0 1.2275-.9947 2.2222-2.2222 2.2222z" fill="#fff" fill-rule="evenodd"/><path d="m80.9999 73.8888 4.4445 15.1111-6.2222.8889" stroke="#00004d" stroke-linecap="round" stroke-linejoin="round" stroke-width="2"/><path clip-rule="evenodd" d="m113.111 63.9756v4.648c1.381-.8827 3.017-1.4014 4.778-1.4014.3 0 .596.016.889.0449v-3.1977c0-7.2467-2.045-14.0143-5.582-19.7649-3.279-5.3289-7.845-9.7756-13.2623-12.9205-5.5684-3.2324-12.032-5.0924-18.9338-5.0924-6.9017 0-13.3653 1.86-18.9337 5.0924-5.4174 3.1449-9.9836 7.5916-13.2623 12.9205-3.5373 5.7506-5.5817 12.5177-5.5817 19.7649v3.1977c.2924-.0289.5884-.0449.8889-.0449 1.7604 0 3.3968.5183 4.7777 1.4014v-4.6205c5.7156-1.4133 11.5774-2.4564 17.5574-3.1057l6.0511-11.0076v10.4893c2.8115-.1764 5.6462-.268 8.5026-.268 11.0307 0 21.7491 1.3391 32.0001 3.8645z" fill="#00004d" fill-rule="evenodd"/><path clip-rule="evenodd" d="m152.111 161.107-12.905-18.669c-4.716-6.823-11.67-11.782-19.657-14.019l-.983-.276-3.975-7.716c-.978-1.9-2.609-3.383-4.592-4.179l-8.999-3.61v10.691c-.002.002-.002.004-.003.007l-19.8834 19.883c-.0383 0-.0756.003-.1138.003l-20-20v-10.695l-8.9991 3.611c-1.9836.795-3.6138 2.279-4.5925 4.178l-4.0418 7.846-.9164.257c-7.9867 2.237-14.94 7.196-19.6564 14.019l-12.90493 18.669v13.226h142.22233z" fill="#9292b3" fill-rule="evenodd"/><path d="m43.3667 128.162 37.6333 21.781 27.24-15.686" stroke="#00004d" stroke-linecap="round" stroke-linejoin="round" stroke-width="2"/><path clip-rule="evenodd" d="m70.7777 167.721c-.7365 0-1.3334-.597-1.3334-1.333v-23.099l2.6667 1.51v21.589c0 .736-.5969 1.333-1.3333 1.333z" fill="#00004d" fill-rule="evenodd"/><path clip-rule="evenodd" d="m91.222 158.388c-.7364 0-1.3333-.597-1.3333-1.333v-12.23l2.6666-1.536v13.766c0 .736-.5968 1.333-1.3333 1.333z" fill="#00004d" fill-rule="evenodd"/><g stroke="#00004d" stroke-linecap="round" stroke-linejoin="round"><path d="m57.4443 119.667 3.5556 3.555" stroke-width="2"/><path clip-rule="evenodd" d="m106.778 78.7779c0 5.6454-4.576 10.2223-10.2218 10.2223-5.6453 0-10.2222-4.5769-10.2222-10.2223 0-5.6457 4.5769-10.2222 10.2222-10.2222 5.6458 0 10.2218 4.5765 10.2218 10.2222z" fill-rule="evenodd" stroke-width="4"/><path clip-rule="evenodd" d="m55.2227 78.7779c0 5.6454 4.5764 10.2223 10.2222 10.2223s10.2222-4.5769 10.2222-10.2223c0-5.6457-4.5764-10.2222-10.2222-10.2222s-10.2222 4.5765-10.2222 10.2222z" fill-rule="evenodd" stroke-width="4"/><path d="m75.0337 75.2303c.7622-2.5742 3.1453-4.4525 5.9667-4.4525 2.8217 0 5.2044 1.8783 5.9671 4.4525" stroke-width="4"/></g><path clip-rule="evenodd" d="m99.2224 77.8889c0 1.9635-1.592 3.5555-3.5555 3.5555-1.9636 0-3.5556-1.592-3.5556-3.5555 0-1.9636 1.592-3.5556 3.5556-3.5556 1.9635 0 3.5555 1.592 3.5555 3.5556z" fill="#00004d" fill-rule="evenodd"/><path clip-rule="evenodd" d="m69.8889 77.8889c0 1.9635-1.592 3.5555-3.5555 3.5555-1.9636 0-3.5556-1.592-3.5556-3.5555 0-1.9636 1.592-3.5556 3.5556-3.5556 1.9635 0 3.5555 1.592 3.5555 3.5556z" fill="#00004d" fill-rule="evenodd"/></g></svg>