<svg width="133" height="39" viewBox="0 0 133 39" fill="none" xmlns="http://www.w3.org/2000/svg">
<path d="M132.265 33.8457C132.265 35.8825 130.58 37.5323 128.497 37.5323H5.20833C3.12615 37.5323 1.43604 35.8825 1.43604 33.8457V4.44641C1.43604 2.4106 3.12615 0.755005 5.20833 0.755005H128.496C130.58 0.755005 132.264 2.4106 132.264 4.44641L132.265 33.8457Z" fill="black"/>
<path d="M128.1 0.799254C130.368 0.799254 132.214 2.59916 132.214 4.81112V33.4758C132.214 35.6877 130.368 37.4876 128.1 37.4876H5.60112C3.33244 37.4876 1.48639 35.6877 1.48639 33.4758V4.81112C1.48639 2.59916 3.33244 0.799254 5.60112 0.799254H128.1ZM128.1 0.0336694H5.60112C2.90737 0.0336694 0.701172 2.18472 0.701172 4.81112V33.4758C0.701172 36.1022 2.90737 38.2532 5.60112 38.2532H128.1C130.793 38.2532 133 36.1022 133 33.4758V4.81112C133 2.18472 130.793 0.0336694 128.1 0.0336694Z" fill="#757575"/>
<path d="M30.226 18.937C30.1976 15.8575 32.8122 14.3592 32.9317 14.2895C31.451 12.1846 29.1558 11.897 28.3493 11.874C26.4217 11.6762 24.5519 12.9986 23.5699 12.9986C22.5684 12.9986 21.0562 11.8931 19.4265 11.9256C17.3293 11.9571 15.3674 13.141 14.2914 14.9794C12.0707 18.7277 13.7269 24.2361 15.8545 27.266C16.9187 28.7499 18.1623 30.4067 19.7901 30.3484C21.3826 30.2844 21.9774 29.3585 23.8992 29.3585C25.8033 29.3585 26.3619 30.3484 28.022 30.3111C29.7311 30.2844 30.8071 28.8206 31.8342 27.3233C33.064 25.6226 33.558 23.9476 33.5776 23.8616C33.5374 23.8482 30.2583 22.6281 30.226 18.937Z" fill="white"/>
<path d="M27.09 9.88087C27.9465 8.83652 28.5326 7.41571 28.3699 5.97388C27.1302 6.02738 25.5799 6.80993 24.6871 7.83135C23.8972 8.73142 23.1916 10.2067 23.3739 11.5941C24.7665 11.6953 26.1963 10.909 27.09 9.88087Z" fill="white"/>
<path d="M53.2734 30.1361H51.0478L49.8287 26.4011H45.5912L44.4299 30.1361H42.2632L46.4615 17.4204H49.0545L53.2734 30.1361ZM49.4612 24.8341L48.3587 21.5137C48.2421 21.1745 48.0236 20.3757 47.7011 19.1183H47.6619C47.5336 19.6591 47.3268 20.4579 47.0426 21.5137L45.9597 24.8341H49.4612Z" fill="white"/>
<path d="M64.0698 25.4388C64.0698 26.9981 63.6376 28.2307 62.7732 29.1355C61.999 29.941 61.0377 30.3433 59.8901 30.3433C58.6514 30.3433 57.7616 29.9095 57.2196 29.0419H57.1804V33.8719H55.0911V23.9855C55.0911 23.0051 55.0646 21.999 55.0137 20.9671H56.8512L56.9678 22.4204H57.007C57.7037 21.3254 58.7611 20.7788 60.1802 20.7788C61.2895 20.7788 62.2156 21.2059 62.9565 22.0611C63.6993 22.9172 64.0698 24.0428 64.0698 25.4388ZM61.9412 25.5133C61.9412 24.6209 61.7354 23.8851 61.3219 23.3061C60.8701 22.7022 60.2635 22.4003 59.503 22.4003C58.9875 22.4003 58.5191 22.5685 58.1006 22.9C57.6812 23.2344 57.4068 23.6711 57.2784 24.2119C57.2137 24.4642 57.1814 24.6705 57.1814 24.833V26.3618C57.1814 27.0287 57.3911 27.5915 57.8106 28.0511C58.23 28.5107 58.7749 28.74 59.4452 28.74C60.2321 28.74 60.8446 28.4438 61.2827 27.8533C61.7217 27.2618 61.9412 26.4822 61.9412 25.5133Z" fill="white"/>
<path d="M74.8862 25.4388C74.8862 26.9981 74.454 28.2307 73.5886 29.1355C72.8154 29.941 71.8541 30.3433 70.7065 30.3433C69.4678 30.3433 68.578 29.9095 68.037 29.0419H67.9978V33.8719H65.9085V23.9855C65.9085 23.0051 65.882 21.999 65.8311 20.9671H67.6685L67.7852 22.4204H67.8243C68.5201 21.3254 69.5776 20.7788 70.9976 20.7788C72.1059 20.7788 73.032 21.2059 73.7748 22.0611C74.5147 22.9172 74.8862 24.0428 74.8862 25.4388ZM72.7576 25.5133C72.7576 24.6209 72.5508 23.8851 72.1373 23.3061C71.6855 22.7022 71.0809 22.4003 70.3194 22.4003C69.803 22.4003 69.3355 22.5685 68.9161 22.9C68.4966 23.2344 68.2232 23.6711 68.0948 24.2119C68.0311 24.4642 67.9978 24.6705 67.9978 24.833V26.3618C67.9978 27.0287 68.2075 27.5915 68.625 28.0511C69.0444 28.5097 69.5893 28.74 70.2616 28.74C71.0485 28.74 71.661 28.4438 72.0991 27.8533C72.5381 27.2618 72.7576 26.4822 72.7576 25.5133Z" fill="white"/>
<path d="M86.979 26.5699C86.979 27.6515 86.5938 28.5315 85.8206 29.2109C84.971 29.9533 83.7881 30.324 82.2682 30.324C80.8648 30.324 79.7398 30.0603 78.8882 29.5319L79.3723 27.834C80.2896 28.3748 81.296 28.6462 82.3926 28.6462C83.1796 28.6462 83.7921 28.4723 84.2321 28.1264C84.6701 27.7805 84.8887 27.3161 84.8887 26.7371C84.8887 26.2211 84.7083 25.7864 84.3467 25.4338C83.9871 25.0812 83.3863 24.7535 82.5475 24.4506C80.2641 23.6203 79.1234 22.4039 79.1234 20.8045C79.1234 19.7592 79.5232 18.9021 80.3239 18.2351C81.1216 17.5673 82.1858 17.2338 83.5167 17.2338C84.7034 17.2338 85.6893 17.4354 86.4762 17.8377L85.9539 19.4983C85.2189 19.1085 84.3879 18.9135 83.4579 18.9135C82.7229 18.9135 82.1486 19.0903 81.737 19.4419C81.3891 19.7563 81.2147 20.1394 81.2147 20.5933C81.2147 21.0959 81.4136 21.5115 81.8135 21.8383C82.1613 22.1402 82.7934 22.467 83.7107 22.8196C84.8328 23.2601 85.657 23.7751 86.1871 24.3656C86.7154 24.9541 86.979 25.6908 86.979 26.5699Z" fill="white"/>
<path d="M93.8867 22.4956H91.5837V26.9472C91.5837 28.0795 91.9895 28.6451 92.8029 28.6451C93.1762 28.6451 93.4859 28.6136 93.7309 28.5505L93.7887 30.0975C93.3771 30.2475 92.8352 30.323 92.1639 30.323C91.3388 30.323 90.6939 30.0774 90.2284 29.5873C89.7649 29.0961 89.5316 28.2725 89.5316 27.1154V22.4937H88.1597V20.9649H89.5316V19.2861L91.5837 18.6823V20.9649H93.8867V22.4956Z" fill="white"/>
<path d="M104.278 25.4758C104.278 26.8851 103.864 28.0422 103.039 28.9471C102.174 29.8787 101.025 30.3431 99.5935 30.3431C98.2136 30.3431 97.1151 29.8968 96.2958 29.0044C95.4765 28.112 95.0669 26.9855 95.0669 25.6277C95.0669 24.2069 95.4883 23.0431 96.334 22.1383C97.1778 21.2325 98.3165 20.7796 99.7483 20.7796C101.128 20.7796 102.238 21.2258 103.076 22.1192C103.878 22.9858 104.278 24.1047 104.278 25.4758ZM102.11 25.5417C102.11 24.6961 101.925 23.9709 101.55 23.3661C101.111 22.6342 100.485 22.2692 99.6738 22.2692C98.834 22.2692 98.196 22.6351 97.7579 23.3661C97.3826 23.9719 97.1974 24.7085 97.1974 25.5799C97.1974 26.4256 97.3826 27.1508 97.7579 27.7546C98.2097 28.4865 98.8408 28.8515 99.6552 28.8515C100.453 28.8515 101.079 28.4789 101.531 27.7355C101.916 27.1192 102.11 26.3864 102.11 25.5417Z" fill="white"/>
<path d="M111.069 22.7586C110.863 22.7213 110.642 22.7022 110.411 22.7022C109.676 22.7022 109.107 22.9726 108.708 23.5144C108.36 23.9921 108.185 24.596 108.185 25.3251V30.1359H106.097L106.116 23.8546C106.116 22.7978 106.09 21.8356 106.038 20.968H107.858L107.934 22.7223H107.992C108.213 22.1194 108.561 21.634 109.037 21.27C109.502 20.9422 110.005 20.7788 110.547 20.7788C110.74 20.7788 110.915 20.7922 111.069 20.8161V22.7586Z" fill="white"/>
<path d="M120.413 25.1177C120.413 25.4827 120.389 25.7903 120.337 26.0416H114.069C114.094 26.9474 114.396 27.6402 114.978 28.1179C115.507 28.545 116.19 28.759 117.029 28.759C117.957 28.759 118.803 28.6148 119.565 28.3252L119.892 29.7394C119.002 30.1177 117.952 30.306 116.74 30.306C115.281 30.306 114.137 29.8875 113.304 29.0514C112.473 28.2154 112.056 27.0927 112.056 25.6843C112.056 24.3017 112.443 23.1503 113.218 22.2321C114.03 21.2518 115.126 20.7616 116.506 20.7616C117.862 20.7616 118.888 21.2518 119.584 22.2321C120.136 23.0108 120.413 23.974 120.413 25.1177ZM118.421 24.5893C118.435 23.9854 118.299 23.4637 118.015 23.0232C117.654 22.4566 117.098 22.1738 116.35 22.1738C115.667 22.1738 115.112 22.4499 114.687 23.0041C114.34 23.4446 114.133 23.973 114.069 24.5883H118.421V24.5893Z" fill="white"/>
<path d="M48.7704 9.5971C48.7704 10.7217 48.4244 11.5683 47.7335 12.1368C47.0936 12.6614 46.1842 12.9241 45.0062 12.9241C44.4222 12.9241 43.9224 12.8993 43.5039 12.8496V6.70484C44.0498 6.61884 44.6378 6.57489 45.2728 6.57489C46.3949 6.57489 47.2406 6.81281 47.811 7.28864C48.4499 7.82658 48.7704 8.59575 48.7704 9.5971ZM47.6875 9.62481C47.6875 8.89577 47.4895 8.33681 47.0936 7.94697C46.6977 7.55809 46.1195 7.36317 45.358 7.36317C45.0347 7.36317 44.7593 7.38419 44.5309 7.42814V12.0995C44.6574 12.1186 44.8886 12.1272 45.2248 12.1272C46.0107 12.1272 46.6173 11.9142 47.0446 11.488C47.4719 11.0619 47.6875 10.4408 47.6875 9.62481Z" fill="white"/>
<path d="M54.5124 10.5797C54.5124 11.2724 54.3095 11.8399 53.9038 12.2852C53.4785 12.7429 52.915 12.9712 52.2114 12.9712C51.5332 12.9712 50.9933 12.7524 50.5905 12.3129C50.1887 11.8743 49.9878 11.3211 49.9878 10.6542C49.9878 9.95667 50.1946 9.38434 50.6101 8.94003C51.0256 8.49573 51.5842 8.2731 52.2878 8.2731C52.966 8.2731 53.5109 8.49191 53.9234 8.93048C54.3154 9.35663 54.5124 9.90699 54.5124 10.5797ZM53.4472 10.6121C53.4472 10.1965 53.355 9.8401 53.1718 9.54295C52.9562 9.18368 52.6494 9.00405 52.2506 9.00405C51.838 9.00405 51.5244 9.18368 51.3088 9.54295C51.1246 9.8401 51.0334 10.2022 51.0334 10.6303C51.0334 11.0459 51.1256 11.4023 51.3088 11.6995C51.5313 12.0587 51.841 12.2384 52.2408 12.2384C52.6328 12.2384 52.9405 12.0559 53.162 11.6899C53.3521 11.387 53.4472 11.0278 53.4472 10.6121Z" fill="white"/>
<path d="M62.2109 8.36429L60.7654 12.8685H59.8246L59.2259 10.9126C59.074 10.4243 58.9505 9.93893 58.8544 9.45737H58.8358C58.7466 9.95231 58.6232 10.4367 58.4644 10.9126L57.8284 12.8685H56.8768L55.5176 8.36429H56.573L57.0954 10.5055C57.2218 11.0119 57.3257 11.4945 57.409 11.9512H57.4276C57.504 11.5747 57.6304 11.0951 57.8088 10.5151L58.4644 8.36524H59.3013L59.9295 10.4692C60.0814 10.9823 60.2049 11.4763 60.2999 11.9522H60.3283C60.3979 11.4887 60.5028 10.9948 60.6419 10.4692L61.2025 8.36524H62.2109V8.36429Z" fill="white"/>
<path d="M67.5351 12.869H66.5081V10.2892C66.5081 9.49422 66.1984 9.09673 65.5771 9.09673C65.2724 9.09673 65.0264 9.20566 64.8353 9.42446C64.6461 9.64327 64.5501 9.90125 64.5501 10.1965V12.868H63.5231V9.65187C63.5231 9.2563 63.5103 8.82728 63.4858 8.36292H64.3884L64.4364 9.06711H64.4648C64.5844 8.8483 64.7628 8.66772 64.997 8.52344C65.2753 8.35527 65.5869 8.27023 65.928 8.27023C66.3592 8.27023 66.7178 8.40591 67.003 8.67823C67.3578 9.01169 67.5351 9.5095 67.5351 10.1707V12.869Z" fill="white"/>
<path d="M70.3673 12.8687H69.3413V6.29782H70.3673V12.8687Z" fill="white"/>
<path d="M76.4143 10.5797C76.4143 11.2724 76.2114 11.8399 75.8057 12.2852C75.3804 12.7429 74.8159 12.9712 74.1132 12.9712C73.4341 12.9712 72.8941 12.7524 72.4923 12.3129C72.0905 11.8743 71.8896 11.3211 71.8896 10.6542C71.8896 9.95667 72.0964 9.38434 72.5119 8.94003C72.9275 8.49573 73.4861 8.2731 74.1887 8.2731C74.8678 8.2731 75.4117 8.49191 75.8253 8.93048C76.2173 9.35663 76.4143 9.90699 76.4143 10.5797ZM75.348 10.6121C75.348 10.1965 75.2559 9.8401 75.0727 9.54295C74.858 9.18368 74.5503 9.00405 74.1524 9.00405C73.7389 9.00405 73.4253 9.18368 73.2107 9.54295C73.0264 9.8401 72.9353 10.2022 72.9353 10.6303C72.9353 11.0459 73.0274 11.4023 73.2107 11.6995C73.4331 12.0587 73.7428 12.2384 74.1426 12.2384C74.5346 12.2384 74.8414 12.0559 75.0629 11.6899C75.2539 11.387 75.348 11.0278 75.348 10.6121Z" fill="white"/>
<path d="M81.3844 12.869H80.4622L80.3857 12.3502H80.3573C80.0418 12.7639 79.592 12.9712 79.0079 12.9712C78.5718 12.9712 78.219 12.8346 77.9534 12.5632C77.7123 12.3167 77.5918 12.01 77.5918 11.646C77.5918 11.0956 77.827 10.6762 78.3003 10.3857C78.7727 10.0952 79.4371 9.95285 80.2926 9.95954V9.87546C80.2926 9.2821 79.9732 8.9859 79.3332 8.9859C78.8775 8.9859 78.4757 9.09769 78.1288 9.31936L77.9201 8.66199C78.3493 8.40305 78.8795 8.2731 79.5047 8.2731C80.7121 8.2731 81.3177 8.89417 81.3177 10.1363V11.795C81.3177 12.2451 81.3403 12.6034 81.3844 12.869ZM80.3181 11.3211V10.6265C79.1853 10.6074 78.6188 10.9103 78.6188 11.5342C78.6188 11.7692 78.6835 11.945 78.8158 12.0626C78.9481 12.1801 79.1167 12.2384 79.3176 12.2384C79.543 12.2384 79.7536 12.1686 79.9457 12.0301C80.1388 11.8906 80.2574 11.7138 80.3015 11.4969C80.3122 11.4482 80.3181 11.389 80.3181 11.3211Z" fill="white"/>
<path d="M87.2205 12.8687H86.3091L86.2611 12.1454H86.2327C85.9416 12.6958 85.4457 12.971 84.749 12.971C84.1923 12.971 83.7288 12.7579 83.3613 12.3317C82.9938 11.9056 82.8105 11.3524 82.8105 10.673C82.8105 9.94397 83.0095 9.35348 83.4093 8.90248C83.7964 8.48207 84.2707 8.27186 84.8352 8.27186C85.4555 8.27186 85.8897 8.47538 86.1366 8.88337H86.1562V6.29782H87.1842V11.6552C87.1842 12.0938 87.196 12.498 87.2205 12.8687ZM86.1562 10.9692V10.2182C86.1562 10.0882 86.1464 9.98314 86.1278 9.90288C86.07 9.6621 85.9455 9.45954 85.7564 9.29615C85.5653 9.13276 85.335 9.05059 85.0694 9.05059C84.6862 9.05059 84.3864 9.19869 84.1659 9.49584C83.9473 9.793 83.8366 10.1723 83.8366 10.6357C83.8366 11.081 83.9414 11.4422 84.1521 11.7202C84.3746 12.0164 84.6745 12.1645 85.0498 12.1645C85.3869 12.1645 85.6564 12.0413 85.8612 11.7938C86.0592 11.5654 86.1562 11.2903 86.1562 10.9692Z" fill="white"/>
<path d="M96.0041 10.5797C96.0041 11.2724 95.8012 11.8399 95.3955 12.2852C94.9702 12.7429 94.4077 12.9712 93.7031 12.9712C93.0259 12.9712 92.4859 12.7524 92.0822 12.3129C91.6804 11.8743 91.4795 11.3211 91.4795 10.6542C91.4795 9.95667 91.6863 9.38434 92.1018 8.94003C92.5173 8.49573 93.0759 8.2731 93.7805 8.2731C94.4577 8.2731 95.0035 8.49191 95.4151 8.93048C95.8071 9.35663 96.0041 9.90699 96.0041 10.5797ZM94.9398 10.6121C94.9398 10.1965 94.8477 9.8401 94.6645 9.54295C94.4479 9.18368 94.1421 9.00405 93.7423 9.00405C93.3307 9.00405 93.0171 9.18368 92.8005 9.54295C92.6163 9.8401 92.5251 10.2022 92.5251 10.6303C92.5251 11.0459 92.6173 11.4023 92.8005 11.6995C93.023 12.0587 93.3327 12.2384 93.7325 12.2384C94.1245 12.2384 94.4332 12.0559 94.6547 11.6899C94.8438 11.387 94.9398 11.0278 94.9398 10.6121Z" fill="white"/>
<path d="M101.526 12.869H100.5V10.2892C100.5 9.49422 100.191 9.09673 99.5683 9.09673C99.2636 9.09673 99.0176 9.20566 98.8275 9.42446C98.6374 9.64327 98.5423 9.90125 98.5423 10.1965V12.868H97.5143V9.65187C97.5143 9.2563 97.5025 8.82728 97.478 8.36292H98.3796L98.4276 9.06711H98.4561C98.5766 8.8483 98.755 8.66772 98.9882 8.52344C99.2675 8.35527 99.5781 8.27023 99.9202 8.27023C100.35 8.27023 100.709 8.40591 100.994 8.67823C101.35 9.01169 101.526 9.5095 101.526 10.1707V12.869Z" fill="white"/>
<path d="M108.438 9.11491H107.307V11.303C107.307 11.8591 107.508 12.1371 107.905 12.1371C108.09 12.1371 108.243 12.1218 108.363 12.0903L108.39 12.8499C108.187 12.9244 107.92 12.9617 107.592 12.9617C107.186 12.9617 106.871 12.8413 106.642 12.6005C106.413 12.3597 106.299 11.9546 106.299 11.3861V9.11491H105.624V8.36485H106.299V7.5393L107.306 7.2431V8.36389H108.437V9.11491H108.438Z" fill="white"/>
<path d="M113.875 12.8687H112.847V10.308C112.847 9.50062 112.537 9.09645 111.917 9.09645C111.441 9.09645 111.115 9.33054 110.937 9.79873C110.906 9.89715 110.889 10.0175 110.889 10.159V12.8678H109.863V6.29782H110.889V9.01237H110.908C111.232 8.51838 111.695 8.27186 112.296 8.27186C112.721 8.27186 113.073 8.40754 113.353 8.67986C113.7 9.01905 113.875 9.52355 113.875 10.1905V12.8687Z" fill="white"/>
<path d="M119.483 10.4038C119.483 10.5835 119.469 10.7344 119.445 10.8577H116.365C116.379 11.303 116.526 11.6422 116.811 11.8772C117.071 12.0874 117.407 12.1925 117.819 12.1925C118.275 12.1925 118.69 12.1218 119.065 11.9794L119.225 12.675C118.787 12.8604 118.272 12.9531 117.675 12.9531C116.96 12.9531 116.396 12.7477 115.988 12.3368C115.579 11.9259 115.376 11.3746 115.376 10.6828C115.376 10.0035 115.565 9.43784 115.946 8.98685C116.344 8.50528 116.882 8.2645 117.561 8.2645C118.226 8.2645 118.73 8.50528 119.072 8.98685C119.347 9.36904 119.483 9.84201 119.483 10.4038ZM118.503 10.1449C118.511 9.84774 118.443 9.59167 118.304 9.37573C118.126 9.09768 117.854 8.95818 117.487 8.95818C117.152 8.95818 116.878 9.09386 116.67 9.36617C116.499 9.58307 116.398 9.84201 116.365 10.1449H118.503Z" fill="white"/>
</svg>
