<svg fill="none" height="162" viewBox="0 0 162 162" width="162" xmlns="http://www.w3.org/2000/svg" xmlns:xlink="http://www.w3.org/1999/xlink"><mask id="a" height="160" maskUnits="userSpaceOnUse" width="160" x="1" y="1"><path clip-rule="evenodd" d="m81 161c44.183 0 80-35.817 80-80 0-44.1828-35.817-80-80-80-44.1828 0-80 35.8172-80 80 0 44.183 35.8172 80 80 80z" fill="#fff" fill-rule="evenodd"/></mask><path clip-rule="evenodd" d="m81 161c44.183 0 80-35.817 80-80 0-44.1828-35.817-80-80-80-44.1828 0-80 35.8172-80 80 0 44.183 35.8172 80 80 80z" fill="#fff" fill-rule="evenodd" stroke="#e9e9e9" stroke-width=".5"/><g mask="url(#a)"><path clip-rule="evenodd" d="m139.206 142.438c-4.716-6.823-11.67-11.782-19.656-14.019l-18.55-5.197v-13.332c7.842-5.891 12.991-15.1609 13.308-25.6467 1.096.4831 2.306.7569 3.581.7569 4.909 0 8.889-3.9796 8.889-8.8889 0-4.9094-3.98-8.8889-8.889-8.8889-1.265 0-2.466.268-3.555.7444v-2.5222c0-18.4098-14.9244-33.3333-33.3337-33.3333h-.0005c-18.4093 0-33.3329 14.9235-33.3329 33.3333v2.5222c-1.0897-.4764-2.2906-.7444-3.5555-.7444-4.9093 0-8.8889 3.9795-8.8889 8.8889 0 4.9093 3.9796 8.8889 8.8889 8.8889 1.2751 0 2.4849-.2734 3.5813-.7569.316 10.4858 5.4658 19.7557 13.3071 25.6467v13.332l-18.5493 5.197c-7.9867 2.237-14.94 7.196-19.6565 14.019l-12.90484 18.669v13.227h142.22184v-13.227z" fill="#f5cdd3" fill-rule="evenodd"/><path clip-rule="evenodd" d="m80.9998 116.556c-4.1102 0-8.0444-.749-11.68-2.109 5.1707 3.303 11.3111 5.22 17.9022 5.22 4.9156 0 9.5774-1.073 13.778-2.983v-6.795c-5.5713 4.185-12.4957 6.667-20.0002 6.667z" fill="#f48c9d" fill-rule="evenodd"/><g stroke="#00004d" stroke-linecap="round" stroke-linejoin="round" stroke-width="2"><path d="m48.8263 77.4084c.1133-.4129.1742-.848.1742-1.2969 0-2.7-2.1889-4.8889-4.8889-4.8889-.6751 0-1.3182.1369-1.9031.384"/><path d="m113.174 77.4084c-.113-.4129-.174-.848-.174-1.2969 0-2.7 2.189-4.8889 4.889-4.8889.675 0 1.318.1369 1.903.384"/><path d="m86.582 96.3331c-1.1814 1.868-3.2654 3.108-5.6387 3.108-2.2991 0-4.3267-1.164-5.5253-2.9351"/><path d="m80.9999 73.8889 4.4445 15.1111-6.2222.8889"/></g><path clip-rule="evenodd" d="m122.936 32.1115c0-7.364-5.97-13.3334-13.334-13.3334-7.363 0-13.333 5.9694-13.333 13.3334 0 .4195.0218.8342.06 1.244-4.6418-2.2214-9.8396-3.4676-15.3289-3.4676-5.7311 0-11.1404 1.364-15.9347 3.7725.0591-.5085.0925-1.0245.0925-1.5489 0-7.364-5.9698-13.3334-13.3334-13.3334-7.3635 0-13.3333 5.9694-13.3333 13.3334 0 7.2902 5.852 13.2102 13.1147 13.3275-3.8867 5.7-6.1614 12.5858-6.1614 20.0045v1.8884c2.1232.3205 3.9978 1.3867 5.3494 2.9302l.0849-.0209 1.7777-8.8888h36.3974v-12.8067l4.3698 12.8067h15.9193l1.778 8.8888.082.0249c1.352-1.5457 3.227-2.6133 5.353-2.9342v-1.8884c0-7.4271-2.281-14.32-6.175-20.0236 7.001-.4031 12.555-6.2067 12.555-13.3084z" fill="#00004d" fill-rule="evenodd"/><path clip-rule="evenodd" d="m9.88867 161.106v13.227h142.22233v-13.226l-12.905-18.669c-4.717-6.823-11.67-11.782-19.657-14.019l-13.119-3.676-25.4302 30.637-25.4307-30.637-13.1187 3.676c-7.9871 2.237-14.9404 7.196-19.6568 14.019z" fill="#fa5051" fill-rule="evenodd"/><path d="m99.5937 76.5555c-.6858 1.5698-2.252 2.6667-4.0747 2.6667s-3.3889-1.0969-4.0747-2.6667" stroke="#00004d" stroke-linecap="round" stroke-linejoin="round" stroke-width="2"/><path d="m70.2607 76.5555c-.6858 1.5698-2.252 2.6667-4.0747 2.6667s-3.3889-1.0969-4.0747-2.6667" stroke="#00004d" stroke-linecap="round" stroke-linejoin="round" stroke-width="2"/></g></svg>