<svg fill="none" height="162" viewBox="0 0 162 162" width="162" xmlns="http://www.w3.org/2000/svg" xmlns:xlink="http://www.w3.org/1999/xlink"><mask id="a" height="160" maskUnits="userSpaceOnUse" width="160" x="1" y="1"><path clip-rule="evenodd" d="m81 161c44.183 0 80-35.817 80-80 0-44.1828-35.817-80-80-80-44.1828 0-80 35.8172-80 80 0 44.183 35.8172 80 80 80z" fill="#fff" fill-rule="evenodd"/></mask><path d="m81 161.25c44.321 0 80.25-35.929 80.25-80.25 0-44.3209-35.929-80.25-80.25-80.25-44.3209 0-80.25 35.9291-80.25 80.25 0 44.321 35.9291 80.25 80.25 80.25z" fill="#fff" stroke="#e9e9e9" stroke-width=".5"/><g mask="url(#a)"><path clip-rule="evenodd" d="m139.206 142.438c-4.716-6.823-11.67-11.782-19.656-14.019l-18.55-5.197v-13.333c7.842-5.89 12.991-15.16 13.308-25.6457 1.096.4831 2.306.7569 3.581.7569 4.909 0 8.889-3.9796 8.889-8.8889 0-4.9094-3.98-8.8889-8.889-8.8889-1.265 0-2.466.268-3.555.7444v-2.5222c0-18.4098-14.9244-33.3333-33.3337-33.3333h-.0005c-18.4093 0-33.3329 14.9235-33.3329 33.3333v2.5222c-1.0897-.4764-2.2906-.7444-3.5555-.7444-4.9093 0-8.8889 3.9795-8.8889 8.8889 0 4.9093 3.9796 8.8889 8.8889 8.8889 1.2751 0 2.4849-.2734 3.5813-.7569.316 10.4857 5.4658 19.7557 13.3071 25.6457v13.333l-18.5493 5.197c-7.9867 2.237-14.94 7.196-19.6565 14.019l-12.90484 18.669v13.226h142.22184v-13.226z" fill="#ffcf83" fill-rule="evenodd"/><path clip-rule="evenodd" d="m80.9998 116.556c-4.1102 0-8.0444-.749-11.68-2.109 5.1707 3.303 11.3111 5.22 17.9022 5.22 4.9156 0 9.5774-1.073 13.778-2.983v-6.795c-5.5713 4.185-12.4957 6.667-20.0002 6.667z" fill="#f7a74f" fill-rule="evenodd"/><g stroke="#00004d" stroke-linecap="round" stroke-linejoin="round" stroke-width="2"><path d="m48.8263 77.4084c.1133-.4129.1742-.848.1742-1.2969 0-2.7-2.1889-4.8889-4.8889-4.8889-.6751 0-1.3182.1369-1.9031.384"/><path d="m113.174 77.4084c-.113-.4129-.174-.848-.174-1.2969 0-2.7 2.189-4.8889 4.889-4.8889.675 0 1.318.1369 1.903.384"/><path d="m75.418 99.4412c1.1814-1.868 3.2654-3.108 5.6387-3.108 2.2991 0 4.3267 1.164 5.5253 2.9351"/><path d="m80.9999 73.8889 4.4445 15.1111-6.2222.8889"/></g><path clip-rule="evenodd" d="m116.555 67.3329v-1.8885-31.1111c0-2.4542-1.99-4.4444-4.444-4.4444h-40c-14.7276 0-26.6667 11.9391-26.6667 26.6666v8.8889 1.8885c2.5334.3822 4.7169 1.8244 6.0756 3.8706l3.0102-10.0951c1.1236-3.7667 4.588-6.3489 8.5182-6.3489h35.9032c3.9305 0 7.3945 2.5822 8.5185 6.3489l3.01 10.0951c1.359-2.0462 3.542-3.4884 6.075-3.8706z" fill="#00004d" fill-rule="evenodd"/><path clip-rule="evenodd" d="m152.111 161.107-12.905-18.669c-4.716-6.822-11.67-11.782-19.657-14.019l-18.549-5.197c0 11.046-8.9544 20-20.0002 20s-20-8.954-20-20l-18.5494 5.197c-7.9871 2.237-14.9404 7.197-19.6568 14.019l-12.90493 18.669v13.226h142.22233z" fill="#9b5921" fill-rule="evenodd"/><path d="m104.9 134.618c-4.361 8.787-13.4255 14.826-23.9001 14.826-13.9583 0-25.4116-10.724-26.5707-24.382" stroke="#00004d" stroke-linecap="round" stroke-linejoin="round" stroke-width="2"/><path clip-rule="evenodd" d="m99.2224 77.8889c0 1.9635-1.592 3.5555-3.5555 3.5555-1.9636 0-3.5556-1.592-3.5556-3.5555 0-1.9636 1.592-3.5556 3.5556-3.5556 1.9635 0 3.5555 1.592 3.5555 3.5556z" fill="#00004d" fill-rule="evenodd"/><path clip-rule="evenodd" d="m69.8889 77.8889c0 1.9635-1.592 3.5555-3.5555 3.5555-1.9636 0-3.5556-1.592-3.5556-3.5555 0-1.9636 1.592-3.5556 3.5556-3.5556 1.9635 0 3.5555 1.592 3.5555 3.5556z" fill="#00004d" fill-rule="evenodd"/></g></svg>