<svg fill="none" height="152" viewBox="0 0 152 152" width="152" xmlns="http://www.w3.org/2000/svg" xmlns:xlink="http://www.w3.org/1999/xlink"><filter id="a" color-interpolation-filters="sRGB" filterUnits="userSpaceOnUse" height="152" width="152" x="0" y="0"><feFlood flood-opacity="0" result="BackgroundImageFix"/><feColorMatrix in="SourceAlpha" type="matrix" values="0 0 0 0 0 0 0 0 0 0 0 0 0 0 0 0 0 0 127 0"/><feOffset dy="14"/><feGaussianBlur stdDeviation="22"/><feColorMatrix type="matrix" values="0 0 0 0 0.0561111 0 0 0 0 0.0777333 0 0 0 0 0.133333 0 0 0 0.08 0"/><feBlend in2="BackgroundImageFix" mode="normal" result="effect1_dropShadow"/><feBlend in="SourceGraphic" in2="effect1_dropShadow" mode="normal" result="shape"/></filter><g filter="url(#a)"><circle fill="#757575" r="32" transform="matrix(-1 0 0 1 76 62)"/></g><path d="m84.75 60.75h-14.825l4.5375-5.45c.2122-.2553.3142-.5844.2838-.9149-.0305-.3306-.191-.6354-.4463-.8476s-.5844-.3143-.9149-.2838-.6354.191-.8476.4463l-6.25 7.5c-.042.0596-.0797.1223-.1125.1875 0 .0625 0 .1-.0875.1625-.0567.1433-.0863.2959-.0875.45.0012.1541.0308.3067.0875.45 0 .0625 0 .1.0875.1625.0328.0652.0705.1278.1125.1875l6.25 7.5c.1175.1411.2647.2546.4311.3323.1663.0778.3478.118.5314.1177.2921.0006.5751-.1012.8-.2875.1266-.105.2312-.2338.3079-.3793.0767-.1454.1239-.3045.139-.4683.0151-.1637-.0022-.3288-.051-.4858s-.1281-.3028-.2334-.4291l-4.5375-5.45h14.825c.3315 0 .6495-.1317.8839-.3661.2344-.2345.3661-.5524.3661-.8839s-.1317-.6495-.3661-.8839-.5524-.3661-.8839-.3661z" fill="#e9e9e9" stroke="#e9e9e9" stroke-width="2"/></svg>