<svg fill="none" height="15" viewBox="0 0 16 15" width="16" xmlns="http://www.w3.org/2000/svg"><path d="m15.3132 5.45722c-.0235-.07247-.0666-.13698-.1246-.18632-.0579-.04934-.1284-.08157-.2036-.09309l-4.5688-.6673-2.04318-4.140226c-.03395-.068594-.08635-.126327-.1513-.166689s-.13987-.061749-.21631-.061749c-.07643 0-.15135.021387-.2163.061749-.06496.040362-.11736.098095-.1513.166689l-2.04316 4.140226-4.56715.65743c-.077947.00954-.151528.04129-.211998.09147-.060471.05018-.105291.11669-.129137.19163-.023847.07493-.025718.15515-.005392.23112.020327.07597.061996.14451.120061.19746l3.305156 3.23296-.77952 4.54782c-.01317.0757-.00489.1536.0239.2248s.07694.1329.13897.1781c.06204.0451.13548.072.21199.0775s.15302-.0106.22085-.0465l4.08303-2.1514 4.08469 2.1498c.0678.0358.1443.0519.2208.0465.0766-.0055.15-.0324.212-.0776.0621-.0452.1102-.1069.139-.1781s.0371-.149.0239-.2247l-.7812-4.54622 3.3052-3.23296c.055-.05367.0938-.12171.1121-.19638.0182-.07467.0152-.15298-.0087-.22602z" fill="#11a876"/></svg>