<svg width="28" height="28" viewBox="0 0 28 28" fill="none" xmlns="http://www.w3.org/2000/svg">
<circle cx="13.8882" cy="14.4019" r="13.5" fill="#11A876"/>
<path d="M12.8049 17.8185V11.9852C12.8049 11.3869 12.3198 10.9019 11.7215 10.9019C11.1232 10.9019 10.6382 11.3869 10.6382 11.9852V17.8185C10.6382 18.4168 11.1232 18.9019 11.7215 18.9019C12.3198 18.9019 12.8049 18.4168 12.8049 17.8185Z" fill="white"/>
<path d="M17.1383 17.8185V11.9852C17.1383 11.3869 16.6533 10.9019 16.055 10.9019C15.4567 10.9019 14.9717 11.3869 14.9717 11.9852V17.8185C14.9717 18.4168 15.4567 18.9019 16.055 18.9019C16.6533 18.9019 17.1383 18.4168 17.1383 17.8185Z" fill="white"/>
</svg>
