<svg fill="none" height="28" viewBox="0 0 28 28" width="28" xmlns="http://www.w3.org/2000/svg"><circle cx="13.8882" cy="14.1064" fill="#00af74" r="13.5"/><path d="m17.0647 13.9662-4.4141-3.201c-.116-.0884-.2522-.142-.3942-.1554-.1421-.0134-.285.0139-.4138.0793-.1288.0653-.2388.1662-.3187.2921-.08.126-.1268.2725-.1357.4242v6.4021c.0089.1517.0557.2982.1357.4242.0799.1259.1899.2268.3187.2921s.2717.0927.4138.0793c.142-.0134.2782-.067.3942-.1554l4.4141-3.2011c.0994-.0698.181-.1648.2375-.2766.0564-.1117.086-.2366.086-.3636 0-.1269-.0296-.2518-.086-.3635-.0565-.1118-.1381-.2068-.2375-.2767z" fill="#fff" stroke="#fff" stroke-miterlimit="10" stroke-width=".5"/></svg>